<svg xmlns="http://www.w3.org/2000/svg" xmlns:xlink="http://www.w3.org/1999/xlink" width="533.25" height="533.25" viewBox="0 0 2133 2133">
  <defs>
    <style>
      .cls-1 {
        fill-rule: evenodd;
        fill: url(#linear-gradient);
      }
    </style>
    <linearGradient id="linear-gradient" x1="1066.626" y1="2069.31" x2="1066.626" y2="64.375" gradientUnits="userSpaceOnUse">
      <stop offset="0" stop-color="#2ea85d"/>
      <stop offset="1" stop-color="#a3d054"/>
    </linearGradient>
  </defs>
  <path id="Fond_en_dégradé_1" data-name="Fond en dégradé 1" class="cls-1" d="M667,266H933c-0.42-35.17-3.55-78.276,5-106,18.532-60.093,92.65-118.525,176-86,17.48,6.823,32.55,17.922,46,29,39.33,32.386,40.58,89.53,40,163h266c-0.42-34.958-3.44-77.4,5-105,18.33-59.94,89.21-118.073,173-88,17.27,6.2,32.78,16.436,46,27,41.36,33.052,44.58,89.764,44,166,63.52-.4,170.82-8.73,219,8,24.08,8.36,44.01,22.414,62,37,52.79,42.792,52,119.817,52,217v696c0,38.8,8.41,94.84-19,107-63.45,28.15-49-81.62-49-130V734H134v984c0,24.61-2.992,54.97,3,75,7.509,25.09,24.577,46.65,45,59,42.925,25.96,165.307,14,233,14h704c18.35,0,46.38-3.92,61,2,22.91,9.28,26.62,47.4,5,61-18.51,11.64-92.08,5-122,5H396c-166.253.01-271.6,14.86-320-109-12.678-32.45-10-80.84-10-126V499c0-32.9-3.6-71.678,3-100,7.8-33.46,23.63-58.265,42-81,52.922-65.5,170.767-52.34,288-52-0.421-34.5-3.34-75.562,5-103,18.038-59.341,86.259-120.429,171-91a157.782,157.782,0,0,1,45,25C663.674,131.572,667.63,185.513,667,266ZM524,134c-25.655,11.84-44.626,17.432-54,45-8.6,25.3-3,68.329-3,99,0,76.207-14.676,154.4,38,181,8.433,4.257,22.158,9.766,37,7,76.766-14.307,57-110.383,57-198,0-37.584,4.572-83.711-11-106C575.242,143.739,555.783,133.618,524,134Zm533,0c-22.84,10.541-41.01,15.232-51,38-10.925,24.9-6,70.856-6,105,0,72.255-13.372,150.616,33,179,9.48,5.8,24.14,13.183,42,10,76.75-13.684,58-108.663,58-196,0-41.836,3.84-87.3-14-111C1106.41,142.278,1087.03,133.63,1057,134Zm534,0c-24.93,10.844-42.86,15.981-53,41-9.81,24.2-4,69.837-4,101,0,77.072-16.18,163.231,42,185,7.88,2.95,19.28,7.243,32,5,77.24-13.613,58-109.375,58-197,0-40.343,4.09-85.872-13-109C1640.49,143.067,1621.11,133.638,1591,134ZM134,666H1999V489c0-26.566,3.5-60.212-3-82a105.772,105.772,0,0,0-46-60c-39.54-23.886-153.48-13.3-216-13,0.42,34.5,3.34,75.563-5,103-18.1,59.559-85.63,119.461-170,91a155.011,155.011,0,0,1-46-25c-43.69-34.523-47.63-88.55-47-169H1200c0.44,36.871,3.16,80.735-6,109-18.11,55.869-87.7,112.7-168,85a156.664,156.664,0,0,1-45-24c-44.568-34.746-48.641-88.367-48-170H667c0.42,34.958,3.439,77.4-5,105-18.44,60.305-89.2,117.437-173,88-17.8-6.252-33.487-17.131-47-28-40.7-32.733-43.574-89.809-43-165-62.383-.364-176.63-10.853-216,13a106.021,106.021,0,0,0-46,60c-6.462,21.492-3,54.742-3,81V666ZM395,899c53.366-.611,149.983-9.109,180,14,9.386,7.226,19.15,20.576,23,33,5.182,16.722,5.22,124.33,0,141-4.032,12.88-14.08,26.72-24,34-18.941,13.9-48.444,13-82,13-58.169,0-121.063,7.4-146-26-17.362-23.25-21.37-148.729-4-177C354.664,910.387,370.584,908.8,395,899Zm400,0c49.4-.564,146.364-8.824,176,11,12.356,8.265,23.69,23.916,28,40v133c-3.9,14.33-13.516,28.96-24,37-19.136,14.68-48.324,14-83,14-58.2,0-121.048,7.42-146-26-17.448-23.37-21.295-148.561-4-177C754.592,910.3,770.578,908.8,795,899Zm400,0c49.39-.564,146.37-8.817,176,11,11.57,7.739,22.6,22.287,27,37,5.24,17.535,5.29,121.52,0,139-3.94,13.03-13.25,26.52-23,34-19.14,14.68-48.32,14-83,14-58.2,0-121.05,7.42-146-26-17.47-23.4-21.32-148.53-4-177C1154.6,910.286,1170.53,908.784,1195,899Zm400,0c53.82-.615,149.37-9.052,180,14,9.69,7.291,19.16,21.148,23,34,5.24,17.535,5.29,121.52,0,139-3.91,12.92-13.23,26.68-23,34-19.2,14.39-47.48,14-82,14-62.36,0-125.08,7.6-150-30-16.09-24.29-15.94-150.658,0-175C1555.63,909.72,1571.51,908.39,1595,899ZM400,967v99H533V967H400Zm400,0v99H933V967H800Zm400,0v99h133V967H1200Zm400,0v99h133V967H1600ZM394,1199c52.153-.6,150.13-9.07,180,13,9.934,7.34,20.019,21,24,34,4.8,15.67,5.738,119.57,1,137-3.945,14.51-13.413,28.88-24,37-19.126,14.67-48.363,14-83,14-63.574,0-125.818,7.55-150-32-14.7-24.04-14.634-146.94,0-171C354.342,1210.71,370.278,1208.78,394,1199Zm400,0c49.564-.56,147.286-8.9,177,11,12.356,8.28,23.687,23.91,28,40v133c-3.9,14.33-13.516,28.96-24,37-19.125,14.67-48.363,14-83,14-58.139,0-121.074,7.39-146-26-17.448-23.37-21.295-148.56-4-177C754.342,1210.71,770.278,1208.78,794,1199Zm406,68v99c53.81,0.83,39.62,88.47-24,64-45.64-17.55-43-62.33-43-126,0-21.26-2.39-47.56,4-63,20.34-49.18,79.7-41.99,149-42,31.01,0,63.8-3.9,76,15,3.85,5.96,6.16,16.3,4,25-3.22,13-8.71,21.44-20,26-10.24,4.14-28.56,2-42,2H1200Zm420-68c211.76-3.84,357.47,125.23,417,274,39.06,97.61,37.23,233.14-3,328-53.06,125.09-151.78,210.73-289,252-29.16,8.77-60.62,8.29-94,14-63.87,10.92-152.23-19.73-192-37-121.32-52.69-204.67-148.31-245-282-9.65-31.99-7.76-63.63-14-102-8.03-49.39,9.19-121.56,23-157,50.42-129.41,136.69-215.47,266-266,27.63-10.8,58.93-15.11,91-21ZM400,1267v99H533v-99H400Zm400,0v99H933v-99H800Zm814,0-32,3c-25.28,4.79-50.73,9.37-73,18-105.69,40.97-180.12,115.23-221,221-14.04,36.32-27.83,92.38-20,143,4.65,30.08,4.34,54.64,12,80,34.79,115.11,108.61,194.2,214,239,39.35,16.73,99.87,37.48,161,28,30.08-4.66,57.91-6.88,84-15,105.21-32.75,187.09-105.93,229-202,11.31-25.92,19.51-54.65,26-85,16.17-75.59-3.34-157.53-26-210C1912.14,1357.65,1799.18,1267.18,1614,1267Zm226,217c30.68-.44,56.36,23.25,38,52l-231,231c-14.43,14.43-57.9,70.34-83,67-23.07-3.07-35.57-24.57-49-38q-51.99-51.495-104-103c-11.07-11.07-28.69-32.52-14-54,8.65-12.64,33.54-19.32,49-8q60,60.495,120,121l263-263Q1834.505,1486.5,1840,1484ZM394,1499c52.2-.6,150.077-9.08,180,13,10.034,7.4,19.978,20.87,24,34,4.8,15.66,5.738,119.59,1,137-3.9,14.33-13.516,28.96-24,37-19.1,14.65-48.429,14-83,14-63.5,0-125.847,7.51-150-32-14.7-24.04-14.634-146.94,0-171C354.342,1510.71,370.278,1508.78,394,1499Zm400,0c52.018-.59,150.319-9.1,180,13,11.012,8.2,21,23.06,25,38v133c-3.865,14.2-13.492,29.15-24,37-19.2,14.35-47.538,14-82,14-61.592,0-123.685,7.38-149-29-16.2-23.28-17.8-148.01-2-174C754.366,1510.67,770.221,1508.8,794,1499Zm-394,68v99H533v-99H400Zm400,0v99H933v-99H800Z"/>
</svg>
