<svg xmlns="http://www.w3.org/2000/svg" xmlns:xlink="http://www.w3.org/1999/xlink" viewBox="0 0 32 30.71"><defs><style>.cls-1{fill:#fff;stroke:#fff;stroke-width:2px;}.cls-1,.cls-2{stroke-miterlimit:10;}.cls-2{fill:url(#Dégradé_sans_nom_16);stroke:url(#Dégradé_sans_nom_16-2);}</style><linearGradient id="Dégradé_sans_nom_16" x1="10.8" y1="15.05" x2="21.31" y2="15.05" gradientUnits="userSpaceOnUse"><stop offset="0" stop-color="#66d366"/><stop offset="0.34" stop-color="#62d165"/><stop offset="1" stop-color="#009245"/></linearGradient><linearGradient id="Dégradé_sans_nom_16-2" x1="10.3" y1="15.05" x2="21.81" y2="15.05" xlink:href="#Dégradé_sans_nom_16"/></defs><g id="Calque_2" data-name="Calque 2"><g id="Calque_5" data-name="Calque 5"><rect class="cls-1" x="1" y="1" width="30" height="28.71" rx="6.33"/><path class="cls-2" d="M20.85,7.5s-.12.48-.34-.29a7.44,7.44,0,0,0-.65-1.74,2,2,0,0,0-.73-.74,1.44,1.44,0,0,0-1-.12A2.17,2.17,0,0,0,17,5.42a4.75,4.75,0,0,0-.75,1.48,12.43,12.43,0,0,0-.63,2.58,30,30,0,0,0-.1,3.45v.25s4.53-1,4.92-1,.37,0,.42.48,0,1.37-.25,1.37-.65.18-.91,0a2.58,2.58,0,0,0-1.22-.24c-.39,0-3,.6-3,.6s.61,11.82.26,12.18-.6.42-.85,0-.32-.06-.32-1.08-.35-10.86-.35-10.86-2.87.72-3.13.42a1.06,1.06,0,0,1-.27-1,.72.72,0,0,1,.7-.3c.31,0,2.61-.41,2.61-.41a30.5,30.5,0,0,1,.18-3.53A19.71,19.71,0,0,1,15,6.61a8.39,8.39,0,0,1,1.29-2.45,3.62,3.62,0,0,1,2.1-.89A3,3,0,0,1,20,3.74a3.57,3.57,0,0,1,1.26,1.79A2.16,2.16,0,0,1,20.85,7.5Z"/></g></g></svg>