<svg xmlns="http://www.w3.org/2000/svg" xmlns:xlink="http://www.w3.org/1999/xlink" width="474" height="536.5" viewBox="0 0 1896 2146">
  <defs>
    <style>
      .cls-1 {
        fill-rule: evenodd;
        fill: url(#linear-gradient);
      }
    </style>
    <linearGradient id="linear-gradient" x1="948.235" y1="2140.09" x2="948.235" y2="5.188" gradientUnits="userSpaceOnUse">
      <stop offset="0" stop-color="#095527"/>
      <stop offset="1" stop-color="#9dde1e"/>
    </linearGradient>
  </defs>
  <path id="Fond_en_dégradé_1" data-name="Fond en dégradé 1" class="cls-1" d="M1105,1215c81.16-1.33,153.86,23.35,212,48,165.32,70.09,284.32,191.5,351,360,16.3,41.19,25.98,86.74,35,135q4.005,39.99,8,80c16.35,5.43,31.07,19.66,41,32,58.98,73.36,59.23,177-16,235-49.84,38.43-108.51,35-197,35H944c-83.192,0-138.759,2.58-186-33-27.908-21.02-47.272-54.74-68-83q-52.494-69-105-138c-23.669-32.24-43.461-70.68-84-86-21.952-8.29-57.835-5.11-87-5,0.351,23.51,4.451,61.05-6,75-13.289,17.75-90.2,11.47-123,11,0.369,23.48,4.437,61.03-6,75-14.983,20.06-111.49,12-149,12-41.982,0-111.744,10.77-123-21-6.058-17.1,4.7-33.42,14-39,12.5-7.51,41.109-4,60-4H222c-0.579-28.53-6.464-117.4,5-133,13.8-18.78,47.445-14.96,56,6,3.991,9.78,2.329,28.03,2,41h66V1364H285v245c0,35.17,4,83.1-39,73-33.262-7.81-24-59.98-24-100V1277H79c-18.346,0-47.143,3.61-59-4-9.723-6.24-19.232-24.53-12-41,3.076-7.01,11.343-14.61,19-17q90.991-.495,182-1c20.3,0,50.428-3.61,63,5,17.861,12.23,13.453,50.98,13,81,37.7-.57,109.7-9.35,125,14,8.928,13.63,4.312,51.23,4,72H638c14.67-17.07,34.683-30.56,53-44,88.4-64.86,200.95-125.18,350-127V961q-61.5-27.5-123-55c-23.932,23.879-67.068,35.86-102,48-225.34,78.31-418.547-54.59-501-190-24.171-39.7-39.824-81.948-52-135-3.386-14.752-11.972-42.653-5-59,8.264-19.376,38.17-29.6,56-40,67.592-39.421,183.9-68.963,289-45,140.71,32.083,229.368,106.955,293,216,22.417,38.416,46.839,91.232,49,147q48,21.5,96,43V784c0-10.036,3.2-33.062-2-39-25.53-26.727-62.031-43.185-86-73-58.411-72.658-134.773-198.414-108-344,5.745-31.242,11.358-60.784,21-88,16.6-46.865,40.8-86.044,68-122,28.117-37.163,60.767-66.89,100-93,10.81-7.195,24.95-23.73,46-19,33.29,7.478,77.8,52.793,100,75,56.51,56.532,96.26,127.455,117,220,29.2,130.3-19.03,256.23-71,330-12.51,17.752-28.65,32.433-42,49-15.86,19.682-54.23,56.216-79,65q0.495,72.993,1,146,47.49-21.5,95-43c2.34-50.463,23.4-101.713,44-137,66.98-114.718,151.02-190.954,298-226,102.44-24.425,213.73,6.076,282,41,20,10.229,56.23,24.253,64,46,6.6,18.475-3.18,48.051-7,63-14.55,57.009-31.97,101.959-60,144-80.1,120.162-249.75,239.63-464,184-50.41-13.088-90.73-34.98-131-57q-60.99,27.5-122,55v254ZM1072,75q-20.505,15.5-41,31c-40.139,31.992-74.459,81.947-96,132-70.722,164.326-.645,350.642,105,428h1V402c-21.62-6.332-92.573-36.815-86-68,9.826-46.617,62.95-14.922,86-3-0.37-15.967-2.17-37.52,3-49,8.93-19.825,43.49-22.432,56-4,17.28,25.458-6.27,107.457,6,139,22.15-11.157,75.42-43.49,85,2,7.01,33.3-63.58,61.916-86,69V667c61.53-44.784,105.51-118.53,127-203,36.23-142.4-28.75-253.939-89-329C1125.8,113.576,1098.73,85.828,1072,75ZM500,541l-49,6c-34.929,8.194-66.845,18.622-95,33l-34,18,9,42c12.239,42.89,28.337,76.574,50,109,57.956,86.751,196.112,191.009,357,159,41.469-8.25,74.361-22.626,109-34L723,816c-8.13-3.989-33.678-17.953-39-15-20.251,9.9-59.364,63.883-90,52-8.16-3.165-13.2-9.2-17-17-17.07-35.073,29.525-50.7,43-67-22.672-5.661-120.975-49.758-127-67-3.211-9.189-.192-21.261,3-27,15.863-28.523,51.337-9.656,72,1-0.9-36.633-4.428-95.322,43-76,26.165,10.66,22.743,69.862,22,106L874,815C839.616,659.873,693.849,540.363,500,541Zm1107,0-38,4c-27.01,5.436-53.35,11.569-77,21-113.97,45.446-178.75,129.793-220,249q120.495-54.5,241-109c0.69-35.646-4.69-95.16,22-106,48.47-19.686,44.01,39.93,43,76l37-17c28.99-7.007,47.52,22.609,37,46-6.28,13.971-105.72,59.787-126,64,0.67,1,1.33,2,2,3,21.83,9.511,72.93,59.8,27,80-29.65,13.041-75.99-39.2-93-52q-56.49,25.5-113,51-24.99,11.5-50,23h2c52.26,37.245,177.81,47.4,254,26,118.9-33.394,201.65-109.829,246-218,9.8-23.9,22.12-52.537,23-84C1757.56,565.16,1709.51,542.065,1607,541ZM1191,1818h454q-2.505-25.5-5-51c-9.07-44.76-17.75-86.66-33-125-66.14-166.24-192.57-284.71-370-340-79.67-24.83-200.69-34.05-291-11-53.6,13.68-105.007,30.79-148,56q-30,19.005-60,38v1c77.2-.82,133.871,2.13,176,34,19.289,14.59,30.295,38.22,49,53h162c32.83,0,59.95-2.62,66,24,4.14,18.21-7.86,32.58-18,37-10.12,4.41-29.55,2-43,2H1015q51.495,62.49,103,125C1153.51,1706.26,1191.39,1734.84,1191,1818ZM121,1386c14.96,0.33,25.378,6.49,31,16,6.372,10.78,7.766,99.43,2,114-3.592,9.08-12.657,17.75-23,20-45.911,9.99-39-44.49-39-82q0.5-22.995,1-46C97.853,1393.99,107.484,1391.71,121,1386Zm293,64v282c33.455-.22,72.665-2.98,99,5,71.288,21.61,103.738,83.47,143,137q42,54.99,84,110c19.125,26.05,37.3,60.77,65,78,41.35,25.72,134.519,15,199,15h469c62.19,0,170.2,10.54,210-13,67.77-40.09,61.75-140.74-8-174-35.9-17.12-106.84-9-157-9H1173c-32.93,65.89-135.1,118.28-222,67-34.732-20.49-57.715-53.05-82-84q-43-51.99-86-104-35.5-42.99-71-86c-8.319-10.61-22.965-24.95-13-45,27.256-54.85,86.606,32.71,100,50q54.995,66.495,110,133c20.611,26.44,41.906,61.4,71,79,57.24,34.63,122.35-2.45,141-48,32.51-79.38-63.45-152.33-97-195q-52.494-63-105-126c-18.761-23.88-36.964-52.66-67-65-33.644-13.82-95.155-7-140-7H414Zm828,195c43.94-1.06,148.47-11.46,119,47-3.5,6.94-11.98,13.6-20,16-15.2,4.55-95.12,4.29-108-1-15.85-6.51-26.03-32.57-13-50C1225.18,1650.07,1233.46,1648.81,1242,1645Z"/>
</svg>
