<?xml version="1.0" encoding="iso-8859-1"?>
<!-- Generator: Adobe Illustrator 19.0.0, SVG Export Plug-In . SVG Version: 6.00 Build 0)  -->
<svg version="1.1" id="Capa_1" xmlns="http://www.w3.org/2000/svg" xmlns:xlink="http://www.w3.org/1999/xlink" x="0px" y="0px"
	 viewBox="0 0 512 512" style="enable-background:new 0 0 512 512;" xml:space="preserve">
<g>
	<g>
		<path d="M58.235,331.332c-4.142,0-7.5,3.358-7.5,7.5v20.708c0,4.142,3.358,7.5,7.5,7.5c4.142,0,7.5-3.358,7.5-7.5v-20.708
			C65.735,334.69,62.377,331.332,58.235,331.332z"/>
	</g>
</g>
<g>
	<g>
		<path d="M322.995,215.7c16.975,11.024,36.638,16.667,56.393,16.667c14.512,0,29.073-3.043,42.648-9.228
			c33.385-15.21,56.339-47.384,59.904-83.967c0.26-2.672-0.928-5.28-3.115-6.837c-29.942-21.316-69.283-25.109-102.668-9.9
			c-32.053,14.603-54.479,44.846-59.374,79.612l-23.253,10.594V177.37c29.608-18.867,47.832-51.814,47.832-87.037
			c0-36.687-19.762-70.914-51.575-89.324c-2.324-1.345-5.189-1.345-7.514,0c-31.813,18.411-51.575,52.638-51.575,89.324
			c0,35.223,18.224,68.17,47.832,87.037v35.273l-23.256-10.595c-4.894-34.766-27.32-65.009-59.374-79.612
			c-33.385-15.21-72.726-11.416-102.668,9.9c-2.188,1.557-3.375,4.165-3.115,6.837c3.565,36.583,26.519,68.757,59.904,83.967
			c13.577,6.186,28.134,9.228,42.648,9.228c19.753,0,39.419-5.643,56.393-16.667l29.468,13.426v60.972
			c-36.314,1.753-70.394,16.221-96.958,41.234H127.86v-13.208c0-4.142-3.358-7.5-7.5-7.5H96.797v-13.209c0-4.142-3.358-7.5-7.5-7.5
			H37.524c-4.142,0-7.5,3.358-7.5,7.5c0,4.142,3.358,7.5,7.5,7.5h44.273v13.209v76.441c0,4.142,3.358,7.5,7.5,7.5
			c4.142,0,7.5-3.358,7.5-7.5v-68.941h16.062v13.198c0,0.003,0,0.006,0,0.01c0,0.004,0,0.006,0,0.01v96.031H96.797v-6.816
			c0-4.142-3.358-7.5-7.5-7.5c-4.142,0-7.5,3.358-7.5,7.5v14.316v13.208H37.524c-4.142,0-7.5,3.358-7.5,7.5
			c0,4.142,3.358,7.5,7.5,7.5h51.773c4.142,0,7.5-3.358,7.5-7.5v-13.208h23.562c4.142,0,7.5-3.358,7.5-7.5v-13.208h13.208
			c7.509,0,14.636,3.63,19.064,9.711c0.021,0.029,0.042,0.057,0.063,0.085l42.906,57.203C210.343,506.08,221.99,512,234.256,512
			h186.376c21.263,0,38.562-17.299,38.562-38.563c0-14.839-8.43-27.739-20.748-34.184c-1.619-80.125-65.354-145.274-144.917-149.149
			v-60.979L322.995,215.7z M382.374,136.086c27.193-12.389,59.012-10.022,84.098,6.005c-4.369,29.447-23.463,55.01-50.656,67.398
			c-24.353,11.095-52.412,10.347-76.027-1.441l39.354-17.929l14.4,11.638c1.388,1.122,3.054,1.667,4.71,1.667
			c2.187,0,4.355-0.953,5.837-2.786c2.604-3.222,2.103-7.944-1.119-10.547l-8.568-6.925l26.646-12.139
			c3.77-1.717,5.433-6.165,3.716-9.935c-1.718-3.77-6.165-5.432-9.935-3.716l-7.803,3.555l0.399-11.012
			c0.15-4.139-3.084-7.617-7.224-7.767c-4.154-0.168-7.617,3.084-7.767,7.224l-0.671,18.508l-58.195,26.513
			C340.173,168.845,358.021,147.181,382.374,136.086z M165.026,160.933l-7.803-3.555c-3.769-1.717-8.217-0.054-9.935,3.716
			c-1.717,3.77-0.054,8.217,3.716,9.935l26.646,12.139l-8.568,6.925c-3.222,2.604-3.722,7.326-1.119,10.547
			c1.482,1.833,3.65,2.786,5.837,2.786c1.656,0,3.322-0.546,4.71-1.667l14.4-11.638l39.354,17.929
			c-23.615,11.786-51.674,12.535-76.026,1.44c-27.192-12.389-46.287-37.952-50.656-67.398c25.087-16.028,56.905-18.393,84.098-6.005
			c24.353,11.094,42.201,32.758,48.804,58.312l-58.195-26.513l-0.671-18.508c-0.15-4.14-3.65-7.39-7.767-7.224
			c-4.14,0.15-7.374,3.627-7.224,7.767L165.026,160.933z M444.192,473.436c0,12.992-10.568,23.563-23.56,23.563H234.255
			c-7.495,0-14.614-3.62-19.1-9.759l-42.932-57.239c-7.244-9.917-18.887-15.836-31.157-15.836h-13.208v-67.833H223.9
			c7.058,0,13.686,3.126,18.207,8.605l51.51,61.811c3.622,4.251,5.616,9.674,5.616,15.27c0,12.992-10.57,23.563-23.562,23.563
			c-7.058,0-13.686-3.126-18.187-8.58l-48.509-58.734c-2.637-3.194-7.366-3.646-10.559-1.007c-3.194,2.638-3.645,7.365-1.007,10.559
			l48.507,58.732c7.358,8.916,18.204,14.03,29.754,14.03c14.822,0,27.71-8.411,34.163-20.707H420.63
			C433.622,449.874,444.192,460.444,444.192,473.436z M423.284,434.976c-0.878-0.06-1.76-0.102-2.653-0.102H314.117
			c0.07-0.944,0.117-1.894,0.117-2.856c0-9.157-3.267-18.035-9.146-24.935l-33.368-40.042h35.015c4.142,0,7.5-3.358,7.5-7.5
			c0-4.142-3.358-7.5-7.5-7.5H259.22l-5.566-6.679c-7.357-8.917-18.202-14.031-29.753-14.031h-18.928
			c23.399-17.144,51.553-26.415,81.054-26.415C359.339,304.917,419.427,362.608,423.284,434.976z M286.029,62.124
			c-4.142,0-7.5,3.358-7.5,7.5V78.2l-9.855-4.929c-3.705-1.851-8.21-0.352-10.063,3.354c-1.853,3.705-0.351,8.21,3.354,10.063
			l16.564,8.284v63.95c-20.517-16.604-32.832-41.828-32.832-68.589c0-29.882,15.346-57.856,40.332-74.04
			c24.985,16.184,40.332,44.158,40.332,74.04c0,26.761-12.315,51.985-32.832,68.588v-43.245l16.561-8.279
			c3.705-1.852,5.207-6.357,3.355-10.062c-1.852-3.705-6.357-5.207-10.062-3.355l-9.854,4.926V69.624
			C293.529,65.482,290.171,62.124,286.029,62.124z"/>
	</g>
</g>
<g>
	<g>
		<path d="M348.152,393.459h-20.708c-4.142,0-7.5,3.358-7.5,7.5c0,4.142,3.358,7.5,7.5,7.5h20.708c4.142,0,7.5-3.358,7.5-7.5
			C355.652,396.817,352.294,393.459,348.152,393.459z"/>
	</g>
</g>
<g>
</g>
<g>
</g>
<g>
</g>
<g>
</g>
<g>
</g>
<g>
</g>
<g>
</g>
<g>
</g>
<g>
</g>
<g>
</g>
<g>
</g>
<g>
</g>
<g>
</g>
<g>
</g>
<g>
</g>
</svg>
