<svg xmlns="http://www.w3.org/2000/svg" xmlns:xlink="http://www.w3.org/1999/xlink" width="533.25" height="533.25" viewBox="0 0 2133 2133">
  <defs>
    <style>
      .cls-1 {
        fill-rule: evenodd;
        fill: url(#linear-gradient);
      }
    </style>
    <linearGradient id="linear-gradient" x1="1067.392" y1="2111.81" x2="1067.392" y2="22.813" gradientUnits="userSpaceOnUse">
      <stop offset="0" stop-color="#095527"/>
      <stop offset="1" stop-color="#9dde1e"/>
    </linearGradient>
  </defs>
  <path id="Fond_en_dégradé_1" data-name="Fond en dégradé 1" class="cls-1" d="M1823,1167c103.43,6.09,208.23,136.3,169,265-23.04,75.59-84.9,138.87-170,152v144c0,21.39,4.63,48.56-4,64-22.49,40.23-124.08,64.35-171,84q-212.985,86.985-426,174-54.99,22.5-110,45c-13.81,5.71-31.64,20.36-53,16-39.92-8.14-81.761-28.78-115-47L691,1961q-135.987-55.5-272-111c-31.368-13.52-80.917-21.45-95-52-17.45-37.86-6.109-151.62-6-204-111.824-11-223.142-147.88-170-283,29.1-74,87.717-118.55,170-137q-0.5-45.495-1-91V931c0-24.665-3.286-50.577,4-69,6.878-17.391,20.519-30.187,40-35,26.511-6.55,48.471,7.865,66,15l126,47c39.244-72.95,171.417-121.724,259-149l70-16,37-5c-33.836-8.86-58.492-35.022-82-55-85.845-72.953-156.644-214.507-112-373C755.262,183.565,826.184,108.537,918,62c27.5-13.936,78.069-32.449,127.29-37.838A225.367,225.367,0,0,1,1093,24c34.71,3.638,70.48,6.712,101,17,110.57,37.269,187.63,112.4,231,217,77.89,187.832-41.78,421.339-190,465v1c24.23,0.167,44.35,7.733,64,13,88.8,23.8,165.42,51.789,229,100,18.66,14.149,30.39,34.879,47,51l131-48c14.27-6.052,34.67-19.744,56-16,23.63,4.148,44.58,13.721,55,31,13.58,22.517,6.03,63.68,6,95v217ZM1061,94l-33,4-57,16c-87.691,34.954-149.5,99.815-177,193-38.438,130.244,14.661,240.756,90,307,23.014,20.236,48.819,32.765,73,45,10.145,5.133,26.836,14.29,47,19,34.24,8,75.85,13.523,101,9,31.65-5.693,57.4-11.474,82-21,75.5-29.241,128.14-71.478,165-152,9.7-21.195,16.61-45.17,22-70,13.12-60.384-3.28-130.052-21-171C1307.12,167,1215.68,93.321,1061,94Zm-19,685-45,2-89,10c-101.6,21.207-233.845,57.367-286,125l321,121q43.5,16.5,87,33c8.52,3.29,26.68,15.89,38,13q162.48-62.49,325-125l112-42q-3.495-3.5-7-7c-17.26-27.586-72.63-52.874-105-67C1299.2,801.066,1185.3,778.69,1042,779Zm712,376V897h-1q-326.97,124.488-654,249v878q326.97-132.99,654-266V1600c-35.54,3.56-67.93-5.9-83-26-24.98-33.32-16.39-76.34-24-132q0.495-23.505,1-47c-3.82-30.91-6.57-85.45-1-116q1.995-23.505,4-47C1662,1183.93,1686.29,1154.29,1754,1155Zm-1366,8c122.93,0.04,100,131.93,100,248,0,60.22,5.481,130.45-19,167-12,17.92-46.752,40.25-81,31q1,76.995,2,154,319.469,130.485,639,261-0.495-439.95-1-880Q707.533,1023.01,387,902,387.5,1032.487,388,1163Zm1349,61c-26.27,23.66-19.28,40.94-19,88q0.495,66.495,1,133c0,26.79-2.09,58.85,3,81,27.26,13.21,66.06-6.37,90-14,71.81-22.9,149.09-86.64,108-189-23.21-57.83-71.87-76.54-136-94Q1760.5,1226.495,1737,1224ZM379,1234c-18.892,8.65-43.816,5.79-65,13-49.867,16.96-86.321,44.97-102,96-31.734,103.27,45.641,156.8,114,180,22.682,7.7,62.627,26.32,87,12,17.21-58.02-4.762-156.55,5-222,4.066-27.26.934-63.44-10-77Q393.5,1234.995,379,1234Z"/>
</svg>
