<svg xmlns="http://www.w3.org/2000/svg" xmlns:xlink="http://www.w3.org/1999/xlink" width="533.25" height="533.25" viewBox="0 0 2133 2133">
  <defs>
    <style>
      .cls-1 {
        fill-rule: evenodd;
        fill: url(#linear-gradient);
      }
    </style>
    <linearGradient id="linear-gradient" x1="1049.5" y1="2068.25" x2="1049.5" y2="65.75" gradientUnits="userSpaceOnUse">
      <stop offset="0" stop-color="#095527"/>
      <stop offset="1" stop-color="#9dde1e"/>
    </linearGradient>
  </defs>
  <path id="Fond_en_dégradé_1" data-name="Fond en dégradé 1" class="cls-1" d="M1800,566v68H1488c-30.25,0-112.12,6.6-134-2-26.21-10.3-17.46-43.31-28-69-19.4-47.294-57.82-63.111-126-63,0.26,30.033,6.4,79.656-11,93-16.91,12.967-63.66,7-92,7H860c-41.752,0-107.7-9.536-123,18-8.933,16.079-3,122.477-3,151V929c0,23.8-3.031,51.162,10,62,17.97,14.95,95.463,8,129,8h347q47.49-47.495,95-95c11.41-11.41,24.35-31.884,41-37l444-1v68H1380q-54.99,55.494-110,111c41.6,13.25,91.56,62,124,88,122.77,98.4,196.83,244.34,233,430,5.65,29.02.87,57.98,6,90q0.495,34.5,1,69c0.01,94.24-12.14,159.51-50,214-40.26,57.95-98.16,102.82-176,123-53.82,13.95-130.5,8-196,8H655c-42,0-86.517,2.51-121-6-147.916-36.51-234.984-140.06-235-326v-80c6.97-42.49,3.524-83.75,12-122,38.638-174.38,117.422-312.64,236-407,39.462-31.4,90.418-78.3,142-95-28.121-40.895-23-93.95-23-163V689c0-28.6-3.13-63.339,4-86,9.557-30.372,35.395-59.943,69-66-3.018-17.085-9.449-39.971-4-61q5.5-14.5,11-29c-57.559-19.107-98.27-82.31-111-147q-1-35-2-70c0-82.141,12.008-129.8,68-154,72.951-31.527,143.327,14.716,161,71,14.342,45.678,1,74.878,37,101-1.136-106.257,27.813-165.156,115-181l107-1c50.65,0,94.83-1.751,126,18,20.32,12.874,37.93,35.025,47,59,16.23,42.887,6.12,165.874-8,200-10.39,25.1-28.08,53.934-48,70q-12.495,10-25,20c104.93-1.189,165.15,49.094,184,133h403ZM742,134c-14.223,6.671-25.944,9.559-34,22-12.52,19.334-12.032,110.659-5,139a155.175,155.175,0,0,0,19,45c49.191,77.308,164.942,58.994,288,59,52.09,0,111.29,4.038,147-12,29.66-13.32,54.59-41.353,67-72,8.24-20.335,16.57-122.427,6-149-8.49-21.332-37.55-41.9-68-28-34.99,15.974-24.14,67.33-39,103-27.45,65.877-114.56,118.275-217,87-45.39-13.857-80.2-47.448-97-90C789.965,189.79,813.34,133.528,742,134ZM967,266c93.98,1.1,93.92-56.747,109-132C969.446,132.5,965.716,161.746,967,266Zm166,267V467H879c-36.439,0-83.717-4.525-79,35,4.413,36.978,44.919,31,86,31h247ZM667,1600H599c-3.377-180.94,58.923-325.46,134-432q27.5-34.995,55-70,14.5-15.495,29-31c-77.532-1.38-127.558,37.95-173,70-134.8,95.08-225.248,223.2-267,412-6.576,29.73-6,61.53-10,94v76c0,32.82-2.434,68.43,4,96,21.168,90.71,79.657,151.5,166,177,31.312,9.25,73.854,7,114,7h555c61.5,0,139.65,8.03,190-7,68.69-20.5,122.89-65.12,150-127,27.5-62.78,28.35-231.64,11-311-41.07-187.93-128.42-318.38-262-413-47.8-33.86-98.09-74.35-179-74l35,38c32.83,41.07,79.11,94.76,98,147q-30.495,15-61,30c-23.68-63.25-87.21-132.22-132-177l-38-38H914c-26.191,35.21-64.78,61.1-92,96C736.885,1272.14,666.75,1406.89,667,1600Zm667,0h-68c0.8-59.19-7.43-112.35-19-160l66-15C1329.13,1474.59,1333.62,1537.58,1334,1600Z"/>
</svg>
