<svg xmlns="http://www.w3.org/2000/svg" xmlns:xlink="http://www.w3.org/1999/xlink" width="533.25" height="533.25" viewBox="0 0 2133 2133">
  <defs>
    <style>
      .cls-1 {
        fill-rule: evenodd;
        fill: url(#linear-gradient);
      }
    </style>
    <linearGradient id="linear-gradient" x1="1066.813" y1="2083.53" x2="1066.813" y2="49.406" gradientUnits="userSpaceOnUse">
      <stop offset="0" stop-color="#095527"/>
      <stop offset="1" stop-color="#9dde1e"/>
    </linearGradient>
  </defs>
  <path id="Fond_en_dégradé_1" data-name="Fond en dégradé 1" class="cls-1" d="M313,50c31,0.486,92.322,75.321,113,96L618,337c30.836,30.837,60.8,73.639,104,91,51.112,20.539,116.68-6.307,167-14,69.015-10.552,150.87,53.906,177,88l6-6q16.995-15,34-30c30.34-24.213,58.05-41.995,105-51,75.66-14.511,147.43,45.455,213,7,40.02-23.473,70.86-64.855,103-97q92.985-92.491,186-185,35.49-35.5,71-71c8.02-8.022,17.07-22.651,36-19,24.2,4.669,42.67,34.671,58,50q66,65.994,132,132l88,88c11.01,11.012,30.6,23.36,35,40,7.05,26.684-18.3,40.305-29,51q-57,56.994-114,114-80.985,81.492-162,163c-27.3,27.3-62.83,52.152-76,93-9.68,30-4.8,93.753,1,129q1.5,21.5,3,43c-5.19,31.653-8.99,55.8-22,78-3.65,6.23-14.11,21.06-12,25,11.35,24.13,30.06,42.43,39,72,17.54,57.99-6.31,120.11-15,172-7.06,42.16,40.93,99.57-11,110-27.39,5.5-34.51-17.37-41-34-21.91-56.15-3.7-123.68,8-179,2.8-13.22,1.98-33.96-1-46-9.69-39.15-36.74-62.3-58-90q-48.99-62-98-124c-17.56-23.181-44.17-68.4-68-83-42.53-26.05-103.73,10.181-91,64,8.31,35.157,45.69,50.443,55,83,9.65,33.73-33.14,52.65-54,32q-19.995-27-40-54-143.49-142.986-287-286c-24.36-24.367-85.088-111.261-135-78-59.969,39.963,9.917,94.921,35,120q142.98,142.485,286,285,40.5,40.995,81,82c11.04,16.93,1.06,39.56-12,47-9.39,5.35-27.61,3.35-35-2q-39-39.495-78-79Q1048.52,914.516,895,761c-25.061-25.065-103.144-132.675-150-70-8.243,11.025-14.13,33.631-7,51,10.438,25.427,70.5,74.507,92,96q149.985,150.485,300,301c17.49,17.48,95.52,78.61,83,110-23.69,59.39-94.94-30.93-111-47Q984.5,1084.01,867,966c-21.916-21.92-66.032-67.942-101-23-38.653,49.678,30.616,95.62,56,121q105.99,106.485,212,213c13.73,13.73,68.53,55.99,64,81-9.12,50.32-52.88,20.12-71,2L891,1224c-22.783-16.2-55.033-3.76-65,16-7.088,14.05-3.705,35.54,4,46q63.993,63.495,128,127l146,146c23.65,23.65,46.49,56.01,79,70,59.25,25.51,140.25-11.09,209,3,71.11,14.57,104.58,57.58,147,100l50,50Q1711,1660.515,1833,1539l-33-33c-10.94-27.83,9.41-67.27,44-46l230,230c13.97,13.97,69.41,54.11,58,84-5.42,14.21-21.85,24.85-32,35l-89,89-135,135c-15.17,15.17-33.94,45.6-58,50-19.04,3.48-27.87-10.87-36-19l-71-71q-94.485-93.99-189-188c-30.88-30.88-61.14-72.08-99-95-36.28-21.96-107.91-18.07-161-10q-24,1.005-48,2c-63.38-10.2-107.64-39.2-139-81l-9,9q-13.995,13.005-28,26c-32.65,26.37-58.479,51.07-109,61-77.369,15.2-153.76-44.64-220-6-39.663,23.13-70.2,64.2-102,96q-93.49,92.985-187,186-35.5,35.49-71,71c-8.163,8.16-16.925,22.42-36,19-19.428-3.48-31.159-23.16-43-35l-91-91q-64.494-64.5-129-129c-14.255-14.25-44.867-33.79-50-55-7.375-30.48,70.112-92.11,87-109q93.99-94.485,188-189c30.4-30.4,71.006-60.16,94-97,22.031-35.3,18.949-102.12,11-155q-1.5-22.005-3-44c7.017-46.36,17.135-87.89,46-112-23.5-34.03-38-60.16-46-113q1.5-22,3-44c8.175-52.721,10.933-119.866-11-155-22.311-35.74-61.521-64.524-91-94L98,480C80.394,462.4,4.683,396.26,0,377c-7.248-29.809,51.117-73.118,66-88L226,129C252.9,102.1,277.255,67.545,313,50Zm4,77L76,368,253,546,495,305,318,127h-1Zm1498,0q-88.485,88.491-177,177Q1758.5,424.487,1879,545q88.485-88.491,177-177Q1935.505,247.513,1815,127ZM539,350L299,591,408,700l17,24c12.5,20.688,19.287,45.656,24,74q-1.5,32.5-3,65c-10.675,66.087-5.757,118.326,22,158l69-69c26.973-10.605,65.218,6.35,48,41l-29,30c-29.969,29.96-89.5,78.54-106,117-27.078,63.1,13.907,157.97-7,227-24.68,81.49-98.2,114.91-144,175Q419.487,1662.5,540,1783q51.995-51.99,104-104l24-18c18.923-11.84,41.672-19.95,67-25,44.807-8.94,91.1,5.23,129,14,12.814,2.97,31.146,8.24,49,5,48.5-8.79,89.77-47.4,116-79L836,1382c-21.325-21.32-48.3-41.5-64-68-35.735-60.33,2.224-138.43,55-154q-55.494-55.5-111-111c-7.41-15.62-18.172-28.23-23-48-16.159-66.149,29.279-120.76,75-133l-28-28-61,61c-25.055,10.344-65.06-1.113-50-38,9.587-23.482,49.632-47.947,66-69-9.076-19.972-19.37-34.509-24-62-15.712-93.281,96.141-149.64,173-108,9.705-38.244,59.363-88.613,113-81,19.343,2.745,33.786,9.376,50,12q5.5-5,11-10c-21.436-28.087-62.97-59.461-105-67-21.9-3.929-42.988,3.22-59,7-43.73,10.323-99.174,20.464-145,6-58.823-18.567-95.9-67.893-135-107Zm1053,0q-25.995,26-52,52c-46.59,46.586-77.78,83.546-160,97-64.39,10.537-112.28-35.882-176-18-58.25,16.346-103.91,81.884-149,116q135.48,135.987,271,272c0.67-.333,1.33-0.667,2-1,10.72-62.234,95.52-107.284,168-76,45.95,19.833,97.16,101.757,128,142q26.49,33.5,53,67h2c4.29-13.723,10.3-26.312,13-43q-1.005-19-2-38c-5.99-38.851-11.65-104.759-3-142,15.1-65.042,59.03-99.03,99-139q24-24,48-48-119.985-120.487-240-241h-2Zm285,1234q-120.99,121.485-242,243,88.995,89.49,178,179Q1935,1884.515,2057,1763q-88.995-89.49-178-179h-2Zm-1624,3q-88.491,88.485-177,177,120.487,120.99,241,242,88.991-88.485,178-177-120.487-120.99-241-242h-1Z"/>
</svg>
