<?xml version="1.0" encoding="utf-8"?>
<!-- Generator: Adobe Illustrator 24.2.3, SVG Export Plug-In . SVG Version: 6.00 Build 0)  -->
<svg version="1.1" id="Calque_1" xmlns="http://www.w3.org/2000/svg" xmlns:xlink="http://www.w3.org/1999/xlink" x="0px" y="0px"
	 viewBox="0 0 1920 1080" style="enable-background:new 0 0 1920 1080;" xml:space="preserve">
<style type="text/css">
	.st0{fill:url(#SVGID_1_);}
</style>
<linearGradient id="SVGID_1_" gradientUnits="userSpaceOnUse" x1="50.8901" y1="153.2818" x2="111.3192" y2="153.2818" gradientTransform="matrix(-0.9899 0.1415 0.1012 0.7082 968.1911 219.8544)">
	<stop  offset="0" style="stop-color:#5C8F3E"/>
	<stop  offset="0.8115" style="stop-color:#A3CD39"/>
	<stop  offset="1" style="stop-color:#D7E279"/>
</linearGradient>
<path class="st0" d="M933.11,335.46c0.11,0.3,0.35,0.61,0.3,0.91c-0.04,0.31-0.37,0.61-0.83,1.31
	c-10.37,3.41-19.01,9.23-27.67,15.03c-2.48,1.66-4.9,3.36-7.44,4.96c-1.34,0.85-2.85,1.34-4.46-0.08c1.37-5.15,1.5-7.34-0.02-10.46
	c-2.85-5.88-7.31-10.92-14.23-14.62c-2.29-1.22-4.44-2.57-6.58-3.93c-0.54-0.34-1.64-0.7-0.59-1.58
	c13.92,0.82,25.96,4.48,35.98,10.63C929.39,334.75,929.39,334.75,933.11,335.46z"/>
</svg>
