<?xml version="1.0" encoding="utf-8"?>
<!-- Generator: Adobe Illustrator 24.2.3, SVG Export Plug-In . SVG Version: 6.00 Build 0)  -->
<svg version="1.1" id="Calque_1" xmlns="http://www.w3.org/2000/svg" xmlns:xlink="http://www.w3.org/1999/xlink" x="0px" y="0px"
	 viewBox="0 0 1920 1080" style="enable-background:new 0 0 1920 1080;" xml:space="preserve">
<style type="text/css">
	.st0{fill:url(#SVGID_1_);}
</style>
<linearGradient id="SVGID_1_" gradientUnits="userSpaceOnUse" x1="683.1429" y1="287.6155" x2="746.0925" y2="287.6155" gradientTransform="matrix(0.8998 0.4364 -0.4364 0.8998 348.3757 -245.4695)">
	<stop  offset="0" style="stop-color:#5C8F3E"/>
	<stop  offset="0.8115" style="stop-color:#A3CD39"/>
	<stop  offset="1" style="stop-color:#D7E279"/>
</linearGradient>
<path class="st0" d="M853.57,330.05c0.98,0.15,2,0.46,3.01,0.43c2.29-0.07,4.57-0.32,6.85-0.49c7.18-0.55,14.03,0.72,20.53,3.81
	c2.7,1.28,5.32,2.75,7.99,4.1c0.74,0.37,1.48,0.96,2.58,0.26c0.44-1.64-0.49-3.02-1.58-4.06c-6.77-6.43-14.29-11.43-24.02-11.94
	c-1.05-0.06-2.08-0.23-3.09-0.34c-2.27-2.59-4.43-5.13-6.67-7.61c-4.33-4.79-9.72-8.07-15.58-10.63c-0.83-0.36-1.71-0.42-2.57,0.67
	c0.35,3.11,2.87,5.3,4.26,8.03c1.52,2.98,3.19,5.88,4.73,8.85C851.45,323.91,851.57,327.26,853.57,330.05z"/>
</svg>
