<?xml version="1.0" encoding="utf-8"?>
<!-- Generator: Adobe Illustrator 24.2.3, SVG Export Plug-In . SVG Version: 6.00 Build 0)  -->
<svg version="1.1" id="Calque_1" xmlns="http://www.w3.org/2000/svg" xmlns:xlink="http://www.w3.org/1999/xlink" x="0px" y="0px"
	 viewBox="0 0 1920 1080" style="enable-background:new 0 0 1920 1080;" xml:space="preserve">
<style type="text/css">
	.st0{fill:url(#SVGID_1_);}
</style>
<linearGradient id="SVGID_1_" gradientUnits="userSpaceOnUse" x1="940.5252" y1="521.0836" x2="991.4748" y2="521.0836">
	<stop  offset="0" style="stop-color:#5C8F3E"/>
	<stop  offset="0.8115" style="stop-color:#A3CD39"/>
	<stop  offset="1" style="stop-color:#D7E279"/>
</linearGradient>
<path class="st0" d="M958.78,528.99c0.77-0.24,1.62-0.37,2.34-0.75c1.64-0.86,3.21-1.85,4.82-2.78c5.03-2.94,10.47-4.43,16.3-4.47
	c2.42-0.02,4.84,0.12,7.27,0.16c0.67,0.01,1.42,0.18,1.97-0.72c-0.26-1.35-1.42-2.03-2.59-2.4c-7.2-2.29-14.45-3.28-21.71-0.21
	c-0.78,0.33-1.6,0.57-2.37,0.84c-2.57-1.09-5.04-2.17-7.54-3.19c-4.85-1.96-9.93-2.45-15.1-2.23c-0.73,0.03-1.39,0.29-1.63,1.4
	c1.35,2.14,3.96,2.84,5.94,4.35c2.16,1.64,4.4,3.15,6.57,4.77C955.07,525.27,956.34,527.66,958.78,528.99z"/>
</svg>
