<?xml version="1.0" encoding="utf-8"?>
<!-- Generator: Adobe Illustrator 24.2.3, SVG Export Plug-In . SVG Version: 6.00 Build 0)  -->
<svg version="1.1" id="Calque_1" xmlns="http://www.w3.org/2000/svg" xmlns:xlink="http://www.w3.org/1999/xlink" x="0px" y="0px"
	 viewBox="0 0 1920 1080" style="enable-background:new 0 0 1920 1080;" xml:space="preserve">
<style type="text/css">
	.st0{fill:url(#SVGID_1_);}
</style>
<linearGradient id="SVGID_1_" gradientUnits="userSpaceOnUse" x1="1115.2499" y1="876.6539" x2="1151.7363" y2="876.6539" gradientTransform="matrix(0.705 -0.7092 0.7092 0.705 -390.9377 615.007)">
	<stop  offset="0" style="stop-color:#5C8F3E"/>
	<stop  offset="0.8115" style="stop-color:#A3CD39"/>
	<stop  offset="1" style="stop-color:#D7E279"/>
</linearGradient>
<path class="st0" d="M1042.88,421.33c-3.76,1.2-7.11,3.14-9.93,5.93c-0.62,0.61-1.22,1.23-1.87,1.88
	c-3.71-0.42-7.33-0.34-10.72,1.12c-3.37,1.45-6.8,2.88-8.72,6.43c0.31,0.26,0.52,0.44,0.82,0.69c2.26-0.86,4.63-1.44,7.07-1.55
	c3.81-0.16,7.6-0.09,11.33,0.87c0.74,0.19,1.5,0.5,2.53-0.05c1.54-3,4.11-5.55,6.27-8.42c0.4-0.54,0.92-1.01,1.45-1.43
	c1.99-1.57,4.01-3.08,6.27-4.26c0.35-0.18,0.98-0.22,0.87-0.9C1045.98,420.74,1045.05,420.63,1042.88,421.33z"/>
</svg>
