<?xml version="1.0" encoding="utf-8"?>
<!-- Generator: Adobe Illustrator 24.2.3, SVG Export Plug-In . SVG Version: 6.00 Build 0)  -->
<svg version="1.1" id="Calque_1" xmlns="http://www.w3.org/2000/svg" xmlns:xlink="http://www.w3.org/1999/xlink" x="0px" y="0px"
	 viewBox="0 0 1920 1080" style="enable-background:new 0 0 1920 1080;" xml:space="preserve">
<style type="text/css">
	.st0{fill:url(#SVGID_1_);}
</style>
<linearGradient id="SVGID_1_" gradientUnits="userSpaceOnUse" x1="152.3094" y1="352.3021" x2="193.0461" y2="352.3021" gradientTransform="matrix(-0.9767 -0.2145 -0.2145 0.9767 1130.8038 122.7304)">
	<stop  offset="0" style="stop-color:#5C8F3E"/>
	<stop  offset="0.8115" style="stop-color:#A3CD39"/>
	<stop  offset="1" style="stop-color:#D7E279"/>
</linearGradient>
<path class="st0" d="M906.37,433.95c-0.02,0.3,0.04,0.64-0.08,0.89c-0.12,0.26-0.41,0.44-0.9,0.94c-7.46,0.21-14.55,3.02-21.65,5.82
	c-2.03,0.8-4.04,1.65-6.09,2.38c-1.09,0.39-2.17,0.41-2.76-1.29c2.36-4.21,3.09-6.13,3.06-9.32c-0.05-6.01-1.35-11.73-4.58-16.91
	c-1.07-1.71-2.01-3.51-2.95-5.3c-0.23-0.45-0.82-1.07,0.1-1.57c8.43,4.54,14.86,11.09,19.31,19.3
	C904.25,432.3,904.25,432.3,906.37,433.95z"/>
</svg>
