<?xml version="1.0" encoding="utf-8"?>
<!-- Generator: Adobe Illustrator 24.2.3, SVG Export Plug-In . SVG Version: 6.00 Build 0)  -->
<svg version="1.1" id="Calque_1" xmlns="http://www.w3.org/2000/svg" xmlns:xlink="http://www.w3.org/1999/xlink" x="0px" y="0px"
	 viewBox="0 0 1920 1080" style="enable-background:new 0 0 1920 1080;" xml:space="preserve">
<style type="text/css">
	.st0{fill:url(#SVGID_1_);}
	.st1{fill:url(#SVGID_2_);}
	.st2{fill:url(#SVGID_3_);}
	.st3{fill:url(#SVGID_4_);}
	.st4{fill:url(#SVGID_5_);}
	.st5{fill:url(#SVGID_6_);}
</style>
<g>
	<linearGradient id="SVGID_1_" gradientUnits="userSpaceOnUse" x1="910.5988" y1="450.9365" x2="1008.1227" y2="450.9365">
		<stop  offset="0" style="stop-color:#5C8F3E"/>
		<stop  offset="0.8115" style="stop-color:#A3CD39"/>
		<stop  offset="1" style="stop-color:#D7E279"/>
	</linearGradient>
	<path class="st0" d="M1005.94,462.51c-1.18-0.99-2.39-1.63-3.06-2.63c-4.97-7.48-11.94-12.16-20.24-15.32
		c-8.21-3.12-16.62-3.73-25.33-3.9c-9.93-0.19-18.36,2.84-26.64,7.87c-6.12,3.73-11.3,8.2-15.43,13.99
		c-1.07,1.5-2.26,2.92-3.35,4.31c-1.69-0.68-1.32-1.81-1.09-2.7c0.85-3.16,2.45-5.94,4.43-8.55c6.57-8.65,15.37-14.24,25.17-18.4
		c3.21-1.36,6.64-2.14,10.24-2.02c3.5,0.12,7.01,0.04,10.51-0.1c8.21-0.35,16,1.29,23.71,4.11c7.27,2.66,13.36,6.98,18.84,12.22
		c1.7,1.62,2.88,3.86,4,5.97C1008.52,458.89,1008.24,460.53,1005.94,462.51z"/>
	<linearGradient id="SVGID_2_" gradientUnits="userSpaceOnUse" x1="895.8744" y1="537.5432" x2="948.8491" y2="537.5432">
		<stop  offset="0" style="stop-color:#5C8F3E"/>
		<stop  offset="0.8115" style="stop-color:#A3CD39"/>
		<stop  offset="1" style="stop-color:#D7E279"/>
	</linearGradient>
	<path class="st1" d="M948.85,570.28c-0.61,0.88-1.05,1.53-1.59,2.3c-6.01,1.01-11.82-0.24-17.27-2.57
		c-6.95-2.98-13.36-7-18.86-12.31c-5.78-5.59-9.28-12.54-11.74-20.03c-1.26-3.83-2.26-7.79-2.91-11.76
		c-1.24-7.57-0.63-15.04,2.28-22.21c0.19-0.46,0.7-0.78,1.43-1.56c0.62,1.99,1.48,3.69,1.65,5.46c0.28,2.94,0.29,5.93,0.11,8.88
		c-0.5,8.29,1.76,16,4.61,23.61c2.63,7,6.94,12.77,13.03,17.13c7.06,5.05,14.32,9.65,23.47,9.73
		C945.24,566.97,947.39,567.38,948.85,570.28z"/>
	<linearGradient id="SVGID_3_" gradientUnits="userSpaceOnUse" x1="981.0352" y1="534.1475" x2="1031.9993" y2="534.1475">
		<stop  offset="0" style="stop-color:#5C8F3E"/>
		<stop  offset="0.8115" style="stop-color:#A3CD39"/>
		<stop  offset="1" style="stop-color:#D7E279"/>
	</linearGradient>
	<path class="st2" d="M981.04,565.03c0.43-0.71,0.95-1.6,1.56-2.62c5.28-1.12,10.5-2.47,15.79-3.29c7.11-1.11,12.4-5.04,16.83-10.28
		c5.7-6.75,9.11-14.65,10.29-23.37c0.76-5.59,0.85-11.27,1.28-16.9c0.2-2.56-0.45-5.29,1.41-7.89c0.76,0.71,1.66,1.15,1.79,1.74
		c2.03,9.56,3.1,19.13,0.43,28.8c-2.48,8.99-6.3,17.24-12.96,23.88c-4.83,4.81-10.39,8.52-17.34,9.7c-4.77,0.81-9.5,1.86-14.27,2.71
		C983.86,567.86,982.09,567.48,981.04,565.03z"/>
	<linearGradient id="SVGID_4_" gradientUnits="userSpaceOnUse" x1="988.165" y1="464.6625" x2="1028.0341" y2="464.6625">
		<stop  offset="0" style="stop-color:#5C8F3E"/>
		<stop  offset="0.8115" style="stop-color:#A3CD39"/>
		<stop  offset="1" style="stop-color:#D7E279"/>
	</linearGradient>
	<path class="st3" d="M1025.58,449.91c0.97,1.19,1.6,1.97,2.46,3.03c-3.46,8.48-5.92,17.31-9.43,25.04
		c-2.26,1.78-4.05,1.59-5.97,1.07c-5.47-1.48-10.96-2.87-16.45-4.25c-2.33-0.58-4.68-1.03-7.24-1.59c-0.31-1.07-0.58-2.03-0.78-2.71
		c1.28-2.4,3.16-2.69,5.07-2.26c5.01,1.11,9.96,2.42,14.96,3.57c1.79,0.42,3.63,0.63,5.44,0.94c3.17-3.69,3.54-8.19,5.3-12.06
		C1020.56,457.11,1020.87,452.77,1025.58,449.91z"/>
	<linearGradient id="SVGID_5_" gradientUnits="userSpaceOnUse" x1="880.5529" y1="500.0139" x2="922.0826" y2="500.0139">
		<stop  offset="0" style="stop-color:#5C8F3E"/>
		<stop  offset="0.8115" style="stop-color:#A3CD39"/>
		<stop  offset="1" style="stop-color:#D7E279"/>
	</linearGradient>
	<path class="st4" d="M905.11,493.93c-3.28-1.06-5.55,0.79-7.99,1.72c-3.02,1.15-5.91,2.65-8.95,3.76
		c-1.48,0.54-3.16,0.67-4.75,0.75c-1.51,0.07-2.49-0.82-2.87-2.5c0.33-0.57,0.57-1.61,1.15-1.85c6.46-2.71,12.95-5.33,19.47-7.89
		c2.3-0.9,4.7-1.18,7.19-0.25c3.31,3.05,3.47,7.82,6.01,11.3c2.52,3.46,5,6.93,7.72,10.69c-0.92,1.18-1.68,2.14-2.58,3.29
		C911.67,508.44,908.91,500.6,905.11,493.93z"/>
	<linearGradient id="SVGID_6_" gradientUnits="userSpaceOnUse" x1="963.9105" y1="561.9678" x2="984.6046" y2="561.9678">
		<stop  offset="0" style="stop-color:#5C8F3E"/>
		<stop  offset="0.8115" style="stop-color:#A3CD39"/>
		<stop  offset="1" style="stop-color:#D7E279"/>
	</linearGradient>
	<path class="st5" d="M970.03,564.29c3.86,6.98,10.98,9.26,14.57,14.76c-0.98,2.79-2.91,3.13-4.66,2.11
		c-5.87-3.42-11.01-7.77-15-13.32c-1.37-1.91-1.39-4.22-0.04-6.11c4.67-6.56,8.32-13.91,14.93-19.49c1.06,0.24,2.25,0.51,3.16,0.72
		c0.99,2.65-0.4,4.02-1.52,5.55C977.67,553.72,973.9,558.95,970.03,564.29z"/>
</g>
</svg>
