<svg xmlns="http://www.w3.org/2000/svg" xmlns:xlink="http://www.w3.org/1999/xlink" width="1000" height="1000" viewBox="0 0 1000 1000">
  <defs>
    <style>
      .cls-1 {
        fill: #9fb75c;
        fill-rule: evenodd;
        filter: url(#filter);
      }
    </style>
    <filter id="filter" x="65" y="63" width="875" height="875" filterUnits="userSpaceOnUse">
      <feFlood result="flood" flood-color="#fff"/>
      <feComposite result="composite" operator="in" in2="SourceGraphic"/>
      <feBlend result="blend" in2="SourceGraphic"/>
    </filter>
  </defs>
  <path id="Forme_1" data-name="Forme 1" class="cls-1" d="M531.508,937.979h-4.93q-205.525,0-411.049,0c-24.611,0-43.65-14.4-49.035-37.249a53.118,53.118,0,0,1-1.429-12.052q-0.1-387.7-.053-775.406c0-24.489,14.577-43.562,37.467-48.856a54.069,54.069,0,0,1,12.068-1.351q387.483-.093,774.965-0.052c24.637,0,43.636,14.375,48.985,37.268a57.516,57.516,0,0,1,1.437,12.963q0.1,387.7.052,775.406c0,27.849-21.374,49.309-49.142,49.321q-108.087.048-216.175,0.011h-4.884V599.6h5.222c34.443,0,68.886-.059,103.329.08,3.907,0.016,5.025-1.238,5.489-5.061,2.7-22.273,5.76-44.5,8.654-66.753q3.729-28.683,7.353-57.379a34.481,34.481,0,0,0,.017-3.747H669.632c-0.106-2.342-.253-4.108-0.254-5.874-0.015-25.227-.265-50.459.118-75.68A151.682,151.682,0,0,1,672.35,355.7c4.806-22.33,20.632-33.352,41.775-34.84,28.689-2.02,57.56-1.448,86.354-1.985,0.73-.014,1.467.069,2.19,0a14.475,14.475,0,0,0,1.974-.492v-4.045c0-36.557-.058-73.115.086-109.671,0.015-3.821-.947-5.09-4.893-5.5a816.577,816.577,0,0,0-110.076-4.2c-32.165,1.021-62.508,9.405-89.542,27.353-24.866,16.507-42.608,39.084-53.834,66.748a195.391,195.391,0,0,0-14.252,72.585c-0.265,34.065-.337,68.132-0.5,102.2,0,0.855-.114,1.709-0.2,2.876H418.221V599.482H531.508v338.5Z"/>
</svg>
