<svg xmlns="http://www.w3.org/2000/svg" xmlns:xlink="http://www.w3.org/1999/xlink" width="1000" height="1000" viewBox="0 0 1000 1000">
  <defs>
    <style>
      .cls-1 {
        fill: #9fb75c;
        fill-rule: evenodd;
        filter: url(#filter);
      }
    </style>
    <filter id="filter" x="52" y="49" width="900" height="897" filterUnits="userSpaceOnUse">
      <feFlood result="flood" flood-color="#fff"/>
      <feComposite result="composite" operator="in" in2="SourceGraphic"/>
      <feBlend result="blend" in2="SourceGraphic"/>
    </filter>
  </defs>
  <path id="Forme_1" data-name="Forme 1" class="cls-1" d="M501.567,945.818c-43.556,0-87.12.5-130.666-.143-41.905-.62-83.964-0.839-125.069-10.714C145.793,910.927,84.76,848.379,61.779,748.7c-7.484-32.464-9.145-65.648-9.328-98.728q-0.845-152.486.008-304.978c0.254-39.489,2.5-79.048,13.932-117.319C93.976,135.35,156.08,80.054,249.62,58.827c33.491-7.6,67.7-9.171,101.812-9.365q150.246-.855,300.5.022C691.075,49.749,730.3,51.672,768.407,62.4c95.57,26.893,152.666,89.631,173.775,185.646,8.739,39.752,9.171,80.3,9.417,120.694q0.784,128.511-.008,257.029c-0.277,42.218-.631,84.6-10.554,126.039-24.1,100.641-87.4,161.817-188.408,184.33-39.387,8.779-79.628,9-119.708,9.549C589.144,946.278,545.352,945.818,501.567,945.818ZM130.633,497.343l1.39,0.024c0,37.7-.629,75.406.173,113.085,0.844,39.687.026,79.58,7.962,118.788,13.164,65.037,50.906,107.812,115.768,125.583,27.633,7.571,56.069,9.525,84.456,9.644q161.239,0.678,322.482-.1a402.723,402.723,0,0,0,70.353-6.578c65.944-12.189,109.337-50.239,127.275-115.52,7.88-28.677,9.614-58.178,9.749-87.6,0.484-104.849.729-209.706-.18-314.549a433.154,433.154,0,0,0-8.2-80.21c-10.027-50.461-38.4-88.225-86.06-110.038-27.047-12.378-55.985-17.376-85.45-18.267-49.707-1.5-99.442-2.691-149.168-2.806-66.7-.156-133.4.58-200.095,1.46-26.568.35-53.135,1.959-79.151,8.172-55.758,13.316-94.985,45.5-114.465,100.007-8.218,23-12.03,46.944-12.7,71.2C133.037,372.191,131.968,434.77,130.633,497.343ZM501.7,266.921c129.019,0.523,232.008,103.65,231.41,231.72-0.6,127.542-104.848,230.008-233.256,229.26-127.7-.744-229.984-104.766-229.252-233.156C271.316,369.14,375.523,266.409,501.7,266.921ZM351.083,497.087c-0.326,82.538,66.9,149.86,150.09,150.314a150,150,0,0,0,151.175-149.74c0.355-82.628-66.616-149.86-149.917-150.5C419.556,346.52,351.411,414.025,351.083,497.087Zm391.852-185.41c-29.377.745-54.045-22.808-54.976-52.491-0.914-29.122,23.114-54.311,52.481-55.018,29.982-.721,54.928,22.823,55.655,52.531S773.135,310.912,742.935,311.677Z"/>
</svg>
