<svg id="Calque_1" data-name="Calque 1" xmlns="http://www.w3.org/2000/svg" viewBox="0 0 30 30"><defs><style>.cls-1{fill:#fff;}</style></defs><path class="cls-1" d="M15.9,13.15a2.64,2.64,0,1,0,2.67,2.63A2.64,2.64,0,0,0,15.9,13.15Z"/><path class="cls-1" d="M22.13,11.12a2.3,2.3,0,0,0-.6-.91,2.55,2.55,0,0,0-.92-.59,4.19,4.19,0,0,0-1.47-.27c-.85,0-1.1,0-3.23,0s-2.38,0-3.22,0a4.33,4.33,0,0,0-1.49.27,2.43,2.43,0,0,0-.91.59,2.56,2.56,0,0,0-.61.91,4.36,4.36,0,0,0-.27,1.47c0,.83-.05,1.08-.05,3.19s0,2.36.05,3.2a4.8,4.8,0,0,0,.27,1.47,2.44,2.44,0,0,0,.61.91,2.31,2.31,0,0,0,.91.59,4.33,4.33,0,0,0,1.49.27c.84,0,1.1.05,3.22.05s2.39,0,3.23-.05A4.38,4.38,0,0,0,20.61,22a2.28,2.28,0,0,0,.92-.59,2.45,2.45,0,0,0,.6-.91A4.43,4.43,0,0,0,22.41,19c0-.83.05-1.09.05-3.2s0-2.36-.05-3.19A5,5,0,0,0,22.13,11.12ZM15.9,19.84A4.06,4.06,0,1,1,20,15.78,4.07,4.07,0,0,1,15.9,19.84Zm4.27-7.33a1,1,0,1,1,0-1.91,1,1,0,0,1,0,1.91Z"/><path class="cls-1" d="M26.19,5.59a14.63,14.63,0,0,0-20.58,0A14.29,14.29,0,0,0,1.35,15.78,14.59,14.59,0,0,0,26.2,26a14.28,14.28,0,0,0,0-20.38ZM23.84,19A5.72,5.72,0,0,1,23.47,21a4,4,0,0,1-2.33,2.31,5.84,5.84,0,0,1-1.93.37c-.85,0-1.12.05-3.3.05s-2.44,0-3.28-.05a5.86,5.86,0,0,1-2-.37,4,4,0,0,1-1.41-.91A4,4,0,0,1,8.35,21,6,6,0,0,1,8,19c0-.84-.06-1.12-.06-3.26s0-2.41.06-3.26a6,6,0,0,1,.36-1.92,4,4,0,0,1,.92-1.4,4,4,0,0,1,1.41-.91,5.86,5.86,0,0,1,2-.37c.85,0,1.12,0,3.28,0s2.45,0,3.3,0a5.79,5.79,0,0,1,1.93.37,3.83,3.83,0,0,1,1.42.91,3.6,3.6,0,0,1,.91,1.4,5.48,5.48,0,0,1,.37,1.92c0,.85.05,1.11.05,3.26S23.88,18.2,23.84,19Z"/></svg>