<svg xmlns="http://www.w3.org/2000/svg" xmlns:xlink="http://www.w3.org/1999/xlink" width="1000" height="1000" viewBox="0 0 1000 1000">
  <defs>
    <style>
      .cls-1 {
        fill: #9fb75c;
        fill-rule: evenodd;
        filter: url(#filter);
      }
    </style>
    <filter id="filter" x="65" y="63" width="875" height="875" filterUnits="userSpaceOnUse">
      <feFlood result="flood" flood-color="#fff"/>
      <feComposite result="composite" operator="in" in2="SourceGraphic"/>
      <feBlend result="blend" in2="SourceGraphic"/>
    </filter>
  </defs>
  <path id="Forme_3" data-name="Forme 3" class="cls-1" d="M939.953,499.839q-0.01,136.4.032,272.79c0.153,82.544-63.714,154.738-145.907,164.107-11.1,1.265-22.391,1.154-33.593,1.157q-237,.06-474.006-0.044c-21.2,0-42.424.49-63.6-.253-49.531-1.737-88.883-23.98-120.39-61.226-25.379-30-37.362-64.83-37.358-103.957q0.025-209.934,0-419.866c0.007-43.532-.47-87.076.348-130.594,1.509-80.218,67.327-150.4,147.557-157.794,13.965-1.287,28.094-1.1,42.147-1.1q259.333-.073,518.666.073c72.237,0.086,136.92,47.432,158.608,115.254,6.085,19.027,7.561,38.6,7.541,58.431Q939.867,368.326,939.953,499.839ZM535.824,795.064c0.145-2.132.371-3.914,0.371-5.7,0.008-71.2-.209-142.4.186-213.594,0.066-11.864.225-24.81,4.761-35.364,13.793-32.093,41.684-54.1,82.476-46.948q28.659,5.026,40.99,31.235c7.6,16.174,9.98,33.489,10.024,51.1q0.264,104.665.145,209.331c0,2.565,0,5.129,0,7.852H802.9c0.106-2.232.264-4.023,0.264-5.814,0.029-73.44.369-146.882-.171-220.318a315.867,315.867,0,0,0-5.085-54.553c-6.6-35.9-21.512-67.789-50.979-91.2-26.806-21.3-57.92-29.974-91.682-30.384-44.455-.54-81.67,14.835-109.617,50.227-2.825,3.577-5.472,7.294-8.2,10.946l-1.289-.34v-50H406.454V795.064h129.37ZM329.687,399.183H200.207v393.93h129.48V399.183Zm-59.7-53.485c3.05-.187,6.115-0.235,9.147-0.581,61.684-7.034,73.01-68.466,50.869-102.646-16.9-26.1-41.723-34.768-71.56-32.627-44.571,3.2-71.252,36.829-63.626,80.275C200.625,323.216,233.456,347.49,269.984,345.7Z"/>
</svg>
