<svg xmlns="http://www.w3.org/2000/svg" xmlns:xlink="http://www.w3.org/1999/xlink" width="1000" height="1000" viewBox="0 0 1000 1000">
  <defs>
    <style>
      .cls-1, .cls-2, .cls-3, .cls-4 {
        fill: #1d7b63;
        fill-rule: evenodd;
      }

      .cls-2 {
        filter: url(#filter);
      }

      .cls-3 {
        filter: url(#filter-2);
      }

      .cls-4 {
        filter: url(#filter-3);
      }
    </style>
    <filter id="filter" x="47" y="38" width="908" height="908" filterUnits="userSpaceOnUse">
      <feFlood result="flood" flood-color="#fff"/>
      <feComposite result="composite" operator="in" in2="SourceGraphic"/>
      <feBlend result="blend" in2="SourceGraphic"/>
    </filter>
    <filter id="filter-2" x="72" y="178" width="859" height="545" filterUnits="userSpaceOnUse">
      <feFlood result="flood" flood-color="#f30000"/>
      <feComposite result="composite" operator="in" in2="SourceGraphic"/>
      <feBlend result="blend" in2="SourceGraphic"/>
    </filter>
    <filter id="filter-3" x="64" y="61" width="873" height="862" filterUnits="userSpaceOnUse">
      <feFlood result="flood" flood-color="#1a6d31"/>
      <feComposite result="composite" operator="in" in2="SourceGraphic"/>
      <feBlend result="blend" in2="SourceGraphic"/>
    </filter>
  </defs>
  <path id="Forme_1" data-name="Forme 1" class="cls-1" d="M986,491c0,268.409-217.589,486-486,486S14,759.409,14,491,231.591,5,500,5,986,222.591,986,491Z"/>
  <path id="Forme_1-2" data-name="Forme 1" class="cls-2" d="M955,492c0,250.736-203.262,454-454,454S47,742.736,47,492,250.264,38,501,38,955,241.264,955,492Z"/>
  <path id="Forme_3" data-name="Forme 3" class="cls-3" d="M302.7,610.988l-17.3-9.726c-2.08,1.059-2.9,2.873-3.951,4.435-7.359,10.98-14.755,21.936-21.985,33q-7.006,10.722-13.575,21.73a119.262,119.262,0,0,0-8.468,18.435,26.561,26.561,0,0,0-1.78,9.455c-0.019,2.572,0,5.144,0,7.7a1.045,1.045,0,0,1-1.622-.359c-1.17-1.736-2.358-3.463-3.487-5.227q-14.99-23.421-29.959-46.856c-3.741-5.853-5.821-12.131-5.387-19.216a26.811,26.811,0,0,1,2.61-10.241c4.03-8.254,8.1-16.491,12.391-24.612,3.685-6.981,7.695-13.79,11.544-20.686,0.38-.68.631-1.433,1.076-2.463l-11.2-6.665c0.178-1.368,1.247-.674,1.861-0.921a6.826,6.826,0,0,1,1.849-.521c5.21-.5,10.429-0.905,15.636-1.429,6.993-.7,13.978-1.486,20.967-2.227,0.792-.084,1.591-0.1,2.384-0.176,6.157-.586,12.324-1.092,18.465-1.822a9.7,9.7,0,0,1,5.115.921,4.135,4.135,0,0,1,2.266,2.337c4.329,10.059,8.8,20.054,13.075,30.136,2.885,6.809,5.527,13.723,8.243,20.6C301.854,607.6,302.057,608.685,302.7,610.988ZM575.729,234.466c4.441-1.731,8.152-3.993,12.161-5.277,1.048,0.941.339,1.652,0.024,2.3q-9.374,19.11-18.787,38.2c-1.708,3.473-3.378,6.965-5.087,10.436a27.987,27.987,0,0,1-1.621,2.961,4.63,4.63,0,0,1-4.476,2.31c-3.03-.266-6.07-0.48-9.08-0.908q-23.735-3.375-47.453-6.86c-2.491-.365-4.959-0.88-8.05-1.435,2.1-1.918,4.286-2.424,6.136-3.475,2.093-1.19,4.285-2.2,6.428-3.3,1.981-1.018,3.955-2.051,6.235-3.234-0.963-1.858-1.752-3.565-2.7-5.178q-11.618-19.785-23.281-39.542c-2.938-5-5.824-10.027-8.746-15.034a78.45,78.45,0,0,0-13.358-17.048,50.1,50.1,0,0,0-10.471-7.687c-1.534-.852-3.055-1.728-4.561-2.582,0.421-1.575,1.61-.919,2.389-0.921,14.941-.042,29.882-0.014,44.823-0.021,4.82,0,9.644.059,14.457-.127A62.936,62.936,0,0,1,530.2,180.7a25.354,25.354,0,0,1,10.208,6.228,96.091,96.091,0,0,1,11.645,13.543c7.3,9.837,14.606,19.669,21,30.145C573.795,231.841,574.684,232.973,575.729,234.466ZM662.208,622.6c0.674,7.247-.04,13.374.561,19.606a21.554,21.554,0,0,0,3.353.935,39.628,39.628,0,0,0,4.335.066c21.369,0.009,42.741.154,64.108-.05,7.971-.076,15.963-0.582,23.784-2.587a57.706,57.706,0,0,0,15.889-6.775c1.04-.636,2.057-1.308,3.548-2.259a15.072,15.072,0,0,1-2.4,5.112c-6.447,10.985-12.942,21.942-19.36,32.945-2.843,4.874-5.621,9.791-8.29,14.764-6.811,12.694-17.643,19.383-31.6,20.964-11,1.247-22.061,2.013-33.109,2.775-5.281.364-10.6,0.215-15.9,0.314-1.108.021-2.216,0.11-3.584,0.181a16.986,16.986,0,0,0-.529,2.766c-0.072,2.745-.017,5.493-0.048,8.239-0.009.749-.145,1.5-0.229,2.3-1.779-.087-2.4-1.307-3.175-2.234q-11.6-13.925-23.152-27.89c-4.116-4.96-8.253-9.9-12.345-14.88-1-1.216-2.277-2.287-2.671-4.361ZM442.553,264.187q-29.312-16.418-58.435-32.743a13.116,13.116,0,0,1-1.564-1.248,12.841,12.841,0,0,1,.785-1.835c6.5-10.173,12.688-20.56,20.027-30.173a43.843,43.843,0,0,1,16.169-13.424c11.04-5.216,21.764-4.361,32.1,1.924a45.707,45.707,0,0,1,11.357,9.629q3.26,3.88,6.441,7.83c0.7,0.875,1.294,1.844,1.912,2.786a12,12,0,0,1,.545,13.21c-1.241,2.256-2.485,4.524-3.912,6.663q-11.667,17.48-23.438,34.889C444.009,262.482,443.357,263.185,442.553,264.187Zm255.561,323.49a31.624,31.624,0,0,1,2.649-1.81c19.376-10.338,38.575-21.015,57.969-31.155a6.859,6.859,0,0,1,1.344,1.113c5.586,8.666,11.263,17.276,16.655,26.063a84.007,84.007,0,0,1,6.053,12.078A28.425,28.425,0,0,1,784.243,612a27.377,27.377,0,0,1-10.422,15.273,44.541,44.541,0,0,1-15.06,7.353,77.91,77.91,0,0,1-22.334,2.981,11.655,11.655,0,0,1-8.955-3.947,40.13,40.13,0,0,1-4.057-5.4q-11.9-18.765-23.7-37.6C699.209,589.855,698.808,588.978,698.114,587.677ZM316.359,656.394c0.584,4.888.549,61.815,0,66.03-1.39.874-3.034,0.509-4.579,0.475-6.1-.132-12.2-0.346-18.294-0.555-4.334-.149-8.675-0.22-13-0.537a79.032,79.032,0,0,1-17.07-2.657,44.787,44.787,0,0,1-5.865-2.144c-10.735-4.947-18.214-14.374-16.585-29.309a34.8,34.8,0,0,1,3.642-12.481c2.844-5.419,6.034-10.657,9.136-15.936a6.275,6.275,0,0,1,5.661-3.08c3.212-.047,6.427-0.021,9.639.041,7.227,0.139,14.488.83,21.671,0.341,7.386-.5,14.744-0.148,22.109-0.4C313.917,656.149,315.012,656.309,316.359,656.394ZM105.585,550.051c0.939,1.5,1.571,2.356,2.053,3.294,2.5,4.872,5.108,9.7,7.379,14.676,1.169,2.564,2.887,3.47,5.528,3.8,6.355,0.784,12.676,1.848,19.5,2.872a23.564,23.564,0,0,1-1.84,2.525c-4.735,4.811-9.5,9.587-14.272,14.382-0.37,3.882.935,7.436,1.384,11.084,0.393,3.2,1.052,6.36,1.526,9.548a22.739,22.739,0,0,1,.02,3.024,45.418,45.418,0,0,1-7.764-3.569c-3.588-1.793-7.194-3.559-10.715-5.479a4.7,4.7,0,0,0-4.969.036c-4.648,2.538-9.347,4.984-14.064,7.39-1.367.7-2.619,1.818-4.683,1.705l3.508-22.82c-4.769-6.049-11.137-10.8-16.175-16.639a3.2,3.2,0,0,1,.138-0.673,0.547,0.547,0,0,1,.308-0.287q10.894-1.848,21.79-3.68a4.245,4.245,0,0,0,.763-0.4C98.559,564.417,101.63,557.362,105.585,550.051ZM875.6,615.888c1.15-7.421,2.04-13.951,3.228-20.426a5.519,5.519,0,0,0-1.779-5.57c-4.074-3.888-8.057-7.874-12.048-11.85-0.753-.75-1.369-1.639-2.3-2.767,4.55-1.325,8.84-1.58,13.017-2.4,2.516-.5,5.063-0.86,7.613-1.137a4.263,4.263,0,0,0,3.7-2.621c2.463-5.076,5.006-10.111,7.543-15.15,0.564-1.121,1.231-2.19,2.086-3.7a28.321,28.321,0,0,1,1.735,2.569c2.645,5.163,5.34,10.3,7.827,15.544a5.5,5.5,0,0,0,4.789,3.369c6.515,0.848,13,1.88,19.994,2.911a19.968,19.968,0,0,1-1.732,2.5c-3.716,3.8-7.483,7.544-11.22,11.321-1.124,1.137-2.207,2.315-3.341,3.509,0.734,7.767,2.828,15.233,3.443,23.346-1.423-.532-2.473-0.819-3.428-1.3-4.59-2.308-9.273-4.465-13.687-7.08-3.055-1.81-5.517-1.5-8.441.214-4.57,2.672-9.361,4.963-14.065,7.4C877.841,614.927,877.115,615.209,875.6,615.888Z"/>
  <path id="Forme_4" data-name="Forme 4" class="cls-4" d="M543.284,316.412c3.222-.966,5.968-1.776,8.706-2.616a10.732,10.732,0,0,0,2.7-.986c2.842-1.837,5.97-2.091,9.226-2.085,2.38,0,4.778.226,7.134-.659a6.5,6.5,0,0,1,3.3.051c4.549,0.881,4.543.917,6.682-3.248,1.182-.052,2.453-0.114,3.725-0.164a4.256,4.256,0,0,1,3.463,1.308,8.961,8.961,0,0,0,2.385,1.532,5.968,5.968,0,0,0,6.337.027,9.022,9.022,0,0,1,8.27-1.013c1.051,0.41,2.449-.074,3.779-0.155,0.712,1.931-.526,2.982-1.726,3.535-2.358,1.086-3.539,3.174-4.988,5.057a5.78,5.78,0,0,0-.5,1.632l2.891,1.239a1.874,1.874,0,0,1,.176.891c-1.486,3.449-1.085,7.253-2.041,10.808a7.761,7.761,0,0,0,.331,2.827,16.122,16.122,0,0,1,.4,2.838c-0.109,2.712.453,5.1,2.744,6.452a3.728,3.728,0,0,1-.145,1.317c-2.18,2.82-3.25,5.793-1.911,9.387a3.477,3.477,0,0,1-.627,2.65,12.542,12.542,0,0,1-2.7,2.705c-1.781,1.388-3.453,2.735-4.337,5-0.416,1.067-1.7,1.851-2.705,2.618a4.767,4.767,0,0,0-1.893,4.158c-0.014,3.631,1.515,6.853,2.543,10.189a47.284,47.284,0,0,0,3.013,6.307,34.985,34.985,0,0,0,4.252,1.473,4.865,4.865,0,0,1,3.721,3.353,18.883,18.883,0,0,0,1.758,3.408c1.4,2.177,2.854,4.31,2.081,7.195,3.584,2.14,6.789,4.266,10.188,6.016a8.654,8.654,0,0,1,4.732,6.179c1.785,7.158,3.951,14.221,5.82,21.359a33.267,33.267,0,0,1,.769,6.166,5.343,5.343,0,0,1-1.732,4.784,3.361,3.361,0,0,0-.787,1.2,2.117,2.117,0,0,0,.379,2.656,34.875,34.875,0,0,0,3.808,2.934c2.788,1.8,3.905,4.26,2.914,7.417a10,10,0,0,0,.893,7.9c0.219,0.428.339,0.908,0.573,1.325,2.056,3.671,2.888,7.429,1.127,11.5a7.166,7.166,0,0,0,.319,5.629c0.591,1.491,1.29,2.946,1.788,4.467,0.767,2.341,1.142,4.682-.509,6.892a6.087,6.087,0,0,0-1.126,4.556,7.843,7.843,0,0,1-.036,2.872,8.624,8.624,0,0,0,.529,6.015c1.288,2.949.538,4.658-2.084,6.591-0.9.666-1.878,1.241-2.754,1.94-1.69,1.348-2.032,2.661-.98,4.636s2.285,3.867,3.515,5.745c1.5,2.283,2.979,4.582,4.633,6.747a9.855,9.855,0,0,1,1.68,8.641c-0.826,3.77-.033,5.184,3.478,6.758,1.168,0.524,2.43.83,3.608,1.333,2.926,1.249,5.828,2.554,9,3.953a0.789,0.789,0,0,0,.577-0.113c2.532-2.449,5.322-2.691,8.364-1.068a2.936,2.936,0,0,0,.881.378c3.935,0.6,6.484,3.019,8.7,6.159,2.031,2.876,4.463,5.469,6.7,8.2,0.8,0.977,1.55,2,2.512,3.24a13.126,13.126,0,0,1-1.772,1.631c-3.55,2.187-7.046,4.486-10.728,6.429a187.49,187.49,0,0,0-17.683,10.71c-13.814,9.373-28.163,17.893-42.466,26.487a217.138,217.138,0,0,0-19.137,12.925c-7.293,5.514-14.754,10.805-22.148,16.185-4.673,3.4-9.378,6.764-13.252,11.115a11.152,11.152,0,0,1-5.678,3.35c-15.61,4.267-31.184,8.671-46.776,13.007-1.225.341-2.5,0.5-3.565,0.711-1.6-.728-1.8-1.932-1.8-3.294,0.025-4.472.01-8.945,0.01-13.7a4.418,4.418,0,0,0-4.445-1.65c-3.915.607-7.155-1.454-10.591-2.6-1.4-.467-2.467-1.945-3.71-2.984-1.925-.56-3.271.937-4.958,1.513-1.759-1.019-3.578-1.985-5.292-3.113a3.027,3.027,0,0,1-1.379-1.817c-0.249-2.9-2.267-4.051-4.551-5.021-1.033-.438-2.1-0.812-3.1-1.313a4.864,4.864,0,0,1-1.932-1.332c-1.477-2.253-3.755-3.464-5.906-4.84q-89.01-56.921-178.038-113.813c-2.3-1.467-4.685-2.788-7.018-4.2a20.519,20.519,0,0,1-2.8-1.85,4.909,4.909,0,0,1-1.9-4.665c0.323-2.223.476-4.47,0.75-6.7,0.665-5.412,1.357-10.82,2.023-16.112,1.469-1.73,3.483-2,5.244-2.594a16.91,16.91,0,0,0,7.9-5.214c2.975-3.568,7.094-5.516,11.415-6.8a13.251,13.251,0,0,1,6.172-.05,6.909,6.909,0,0,0,6.615-1.827,5.641,5.641,0,0,1,3.852-1.633,5.146,5.146,0,0,0,2.691-.812c2.046-1.523,4.2-1.331,6.435-.789,0.466,0.113.916,0.293,1.378,0.423,4.3,1.21,8.161.229,10.756-3.315,2.693-3.679,6.8-4.5,10.457-6.286,1.427-.7,3.011-1.067,4.463-1.72,4.382-1.971,8.735-4.008,13.1-6.02,0.146-.067.289-0.141,0.43-0.218L382.321,442.4c0.717-1.85.316-3.779,0.119-5.658a5.538,5.538,0,0,1,2.1-5.092,12.11,12.11,0,0,1,1.094-.939A29.586,29.586,0,0,0,394.5,422.1c1.165-1.821,3.2-3.112,4.948-4.521a8.048,8.048,0,0,1,5.36-1.807c2.7,0.059,5.363-.116,8.029.9,2.927,1.114,5.618-.569,8.2-1.709a3.6,3.6,0,0,0,1.817-2.646c0.017-2.74,1.641-4.409,3.281-6.18a5.512,5.512,0,0,0,.615-1.5,5.823,5.823,0,0,0-1.75-.643c-1.6,0-2.621-.916-3.751-1.868a11.117,11.117,0,0,1-4.262-8.705c-0.133-4.638-.775-9.262-1.21-14.036-3.852-4.418-5.421-9.807-5.425-15.758,0-2.537.213-5.045-1.316-7.426-0.685-1.067-.419-2.746-0.6-4.249a13.163,13.163,0,0,1,2.009-.712c3.524-.585,6.584-2.361,9.762-3.812a6.946,6.946,0,0,0,2.159-1.827c0.516-.591.744-1.425,1.22-2.062,2.376-3.18,5.019-5.844,9.548-4.9a9.861,9.861,0,0,0,2.4-.094,14.179,14.179,0,0,0,1.107-.934c2.482-2.554,2.478-2.557,5.418-.544,1.66,1.137,4.976.461,5.6-1.786,1.189-4.284,4.32-5.549,7.949-6.683a24.763,24.763,0,0,0,6.114-2.763c2.395-1.562,5.13-1.769,7.723-2.471,1.483-.4,3.168-0.051,4.762-0.054a32.2,32.2,0,0,0,4.756-.08,41.712,41.712,0,0,0,6.061-1.449c3.526-1.094,6.992-2.322,10.805-1.74a3.814,3.814,0,0,0,2.2-.758,29.361,29.361,0,0,0,2.58-1.919c3.869,1.184,3.86,1.162,7.494-.213,2.682-1.015,5.134-2.6,8.116-2.884a37.147,37.147,0,0,1,8.627-.172c3.177,0.434,6.386.659,9.531-.419a5.223,5.223,0,0,1,4.171.555C540.257,315.082,542.018,315.831,543.284,316.412ZM513.932,496.849c1.078,0.62,1.655.888,2.163,1.254,2.993,2.16,6,4.3,8.947,6.526,7.84,5.924,16.77,7.158,26.067,5.45,9.353-1.717,18.083-5.475,26.578-9.7a8.821,8.821,0,0,0,4.262-4.415c2.427-5.5-1.306-11.962-7.587-12.955a13.982,13.982,0,0,0-7.58.734c-2.227.908-4.424,1.909-6.7,2.674-4.1,1.378-8.187,2.84-12.382,3.843a12.689,12.689,0,0,1-13.075-4.144,34.313,34.313,0,0,1-3.888-5.469c-3-5.122-5.809-10.361-8.832-15.472a60.84,60.84,0,0,0-5.135-7.554A32.786,32.786,0,0,0,494.513,445.5a56.712,56.712,0,0,0-18.207.81,119.256,119.256,0,0,0-18.926,5.4,138.158,138.158,0,0,0-16.992,7.921,29.37,29.37,0,0,1-10.381,3.639c-1.1.146-2.186,0.425-3.373,0.662-1.054,2.476-.375,4.841.355,7.093,0.888,2.739,2.115,5.367,3.152,8.059a2.57,2.57,0,0,1-1.022,3.357,2.612,2.612,0,0,1-3.487-.473,16.964,16.964,0,0,1-2.32-3.617c-1.009-2.166-1.817-4.426-2.819-6.918a17.03,17.03,0,0,0-2.033,1.419c-0.809.766-1.445,1.722-2.281,2.45a2.549,2.549,0,0,1-3.495-.171,2.28,2.28,0,0,1-.54-3.031,58.24,58.24,0,0,1,3.536-5.136c0.958-1.26,2.083-2.392,3.254-3.715a6.456,6.456,0,0,0-1.577-1.376,6.333,6.333,0,0,0-6.7,1.249,38.484,38.484,0,0,0-12.723,20.525c-1.238,5.22-.988,10.541-0.462,15.824a11.9,11.9,0,0,0,3.4,6.779,16.021,16.021,0,0,0,6.363,4.2,44.086,44.086,0,0,0,11.229,2.458,87.693,87.693,0,0,0,23-.938,38.69,38.69,0,0,0,13.164-4.405c5.151-2.976,7.981-7.332,7.841-13.37a41.741,41.741,0,0,0-3.55-15.859c-0.549-1.256-1.729-2.437-.8-4.42,6.847-2.716,13.825-5.949,21.4-7.532a30.212,30.212,0,0,1,4.294-.486,1.723,1.723,0,0,1,2.126,1.236c-1.146,2.167-2.4,4.564-3.677,6.944a140.263,140.263,0,0,0-9.671,20.954c-3.815,11.148-5.817,22.668-7.476,34.269a35.4,35.4,0,0,1-4.854,13.986,30.5,30.5,0,0,1-4.55,5.567c-2.873,2.8-5.409,2.789-8.476.146a31.167,31.167,0,0,1-3.3-3.489,113.53,113.53,0,0,1-12.262-18.41,29.6,29.6,0,0,0-1.944-3.32c-3.305-4.434-9.172-5.51-14.237-2.68-4.89,2.732-6.326,7.06-3.727,12.673a157.032,157.032,0,0,0,7.6,14.473,63.588,63.588,0,0,0,13.195,15.854c8.849,7.573,18.87,8.926,29.726,5.268a26.118,26.118,0,0,0,11.943-8.643c3.943-4.857,7.631-9.92,11.48-14.854a50.635,50.635,0,0,1,4.1-4.7,3.832,3.832,0,0,1,4.484-.664,15.285,15.285,0,0,1,3.255,2.026,40.223,40.223,0,0,1,11.6,13.959,38.046,38.046,0,0,1,3.782,21.51c-0.527,4.124-1.653,8.167-2.4,12.267a36.641,36.641,0,0,0-.676,6.2,8.13,8.13,0,0,0,5.375,7.874c5.9,2.491,13.07,1.237,15.519-6.541,0.289-.918.6-1.831,0.871-2.755a78.143,78.143,0,0,0,3.125-23.276,52.156,52.156,0,0,0-14.52-36.178,64.5,64.5,0,0,0-10.1-8.9c-3.033-2.115-3.861-4.773-2.741-8.368,1.906-6.122,3.515-12.337,5.287-18.5A28.658,28.658,0,0,1,513.932,496.849Zm-16.314-73.758a23.112,23.112,0,1,0,46.223-.166,23.146,23.146,0,0,0-22.984-22.96C508.015,399.8,497.322,410.666,497.618,423.091ZM615.153,594.617c0.684-2,1.424-3.933,2.008-5.915,0.884-3,.689-3.592-2.119-4.906a16.058,16.058,0,0,1-7.443-6.59,8.752,8.752,0,0,0-4.214-3.775,60.316,60.316,0,0,0-7.991-3.256c-8.182-2.27-16.43-4.3-24.653-6.417a23.339,23.339,0,0,0-2.8-.666,3.37,3.37,0,0,0-3.883,2.121,21.66,21.66,0,0,0-.981,2.71q-2.488,7.8-4.948,15.6a12.916,12.916,0,0,0-.567,2.324,2.99,2.99,0,0,0,1.933,3.478,17.455,17.455,0,0,0,2.721.939q6.255,1.712,12.524,3.371c4.95,1.316,9.881,2.717,14.865,3.886a19.219,19.219,0,0,0,11.37-.476c4.092-1.543,8.252-2.6,12.682-2A5.8,5.8,0,0,0,615.153,594.617ZM429.159,439.691a47.508,47.508,0,0,0-14.3,2.22,13.945,13.945,0,0,0-3.047,1.353,2.1,2.1,0,0,0-.763,3.265c1.961,2.913,3.937,5.833,6.16,8.543a8.221,8.221,0,0,0,3.611,2.147c4.08,1.42,8.194.867,12.244-.245a6.148,6.148,0,0,0,4.195-2.929c1.484-2.829,3.089-5.6,4.493-8.466,1.15-2.35.617-3.621-1.9-4.331A36.761,36.761,0,0,0,429.159,439.691ZM622.618,583.145c-2.113,3.418-4.633,10.977-5.235,15.265,0.831,1.5,2.311,1.492,3.74,1.57a3.292,3.292,0,0,0,3.647-2.419c1.056-3.171,2.177-6.323,3.146-9.521a2.788,2.788,0,0,0-1.575-3.594A30.868,30.868,0,0,0,622.618,583.145ZM495.1,602.059a5.333,5.333,0,0,0-1.573-.679q-27.171-.079-54.344-0.077a9.586,9.586,0,0,0-2.134.592c0.481,0.677.742,1.446,1.132,1.518a21.263,21.263,0,0,0,3.821.267q24.049,0.021,48.1,0a21.547,21.547,0,0,0,3.821-.264C494.344,603.339,494.646,602.611,495.1,602.059Zm9.392-20.251a3.8,3.8,0,0,0-1.3-.66q-19.7-.047-39.393,0a3.863,3.863,0,0,0-1.3.653,2.882,2.882,0,0,0,.855,1.124,23.008,23.008,0,0,0,3.8.346q16.341,0.036,32.681,0a23.136,23.136,0,0,0,3.8-.341A2.89,2.89,0,0,0,504.494,581.808Zm-59.543,10.635c3.693,0.947,15.306,1.154,38.487.735,1.211-.022,2.419-0.241,4.35-0.443-0.965-.868-1.332-1.471-1.8-1.56a17.78,17.78,0,0,0-3.331-.223q-16.53-.02-33.06,0a16.853,16.853,0,0,0-3.328.238A4.159,4.159,0,0,0,444.951,592.443ZM485.668,923H477.1c-0.718-1.754-1.431-3.347-2.031-4.982q-7.792-21.238-15.568-42.483c-0.585-1.586-.856-3.4-2.609-4.861-1.856,5.669-2.116,11.268-3.176,16.7-1.106,5.667-1.917,11.391-2.826,17.1-0.875,5.5-1.7,11.007-2.767,16.461a10.131,10.131,0,0,1-1.821.092c-5.008-.877-5.015-0.881-7.573-5.543q-9.033-16.462-18.063-32.927c-0.752-1.368-1.62-2.672-2.329-3.834a1.237,1.237,0,0,0-1.442,1.3q-2.447,14.964-4.893,29.928c-0.257,1.55-.674,3.073-1.029,4.666a14.051,14.051,0,0,1-7.509-.943c0-6.019,1.647-11.742,2.423-17.567,0.805-6.041,1.911-12.042,2.919-18.056,0.977-5.829,2-11.651,3-17.451,2.288-.548,4.094.345,5.929,0.722a3.57,3.57,0,0,1,1.72,1.572,38.4,38.4,0,0,1,1.913,3.339q9.03,16.465,18.064,32.927c0.741,1.346,1.278,2.885,2.95,4.021,1.024-1.45.768-2.93,1.032-4.248,0.251-1.259.477-2.523,0.7-3.787,0.25-1.422.5-2.845,0.716-4.272,0.2-1.27.335-2.548,0.537-3.816,0.227-1.426.5-2.845,0.747-4.267,0.224-1.264.47-2.525,0.67-3.792,0.225-1.427.4-2.863,0.618-4.29,0.2-1.268.41-2.535,0.661-3.793,0.276-1.381.6-2.751,0.958-4.335a33.487,33.487,0,0,1,4.529.379,39.157,39.157,0,0,0,9.548.938,4.246,4.246,0,0,1,4.435,2.985c0.172,0.449.325,0.906,0.481,1.361q6.317,18.437,12.646,36.871a14.949,14.949,0,0,0,1.142,2.011,19.972,19.972,0,0,0,1.037-1.816c5.043-12.15,10.124-24.285,15.065-36.476,1.081-2.668,2.775-3.747,5.534-3.482,1.586,0.152,3.18.22,4.967,0.338,0.532,2-.659,3.472-1.315,4.968q-9.274,21.165-18.672,42.274C487.509,918.962,486.578,920.987,485.668,923ZM314.046,882.968c2.958-7.2,6.261-14.121,9.372-21.123,3.055-6.875,6.128-13.742,9.279-20.806a13.445,13.445,0,0,0-2.427-1.693c-8.4-3.3-15.924-8.216-23.691-12.686-3.051-1.757-6.1-3.509-9.37-5.386a15.5,15.5,0,0,0-1.885,2.123c-2.141,3.571-4.206,7.188-6.428,11.013a24.231,24.231,0,0,0,2.628,2.143c3.021,1.82,6.1,3.537,9.146,5.321,1.371,0.8,2.7,1.673,4.294,2.663a13.428,13.428,0,0,1-3.444,5.786c-5.59-2.577-10.549-6.131-16.063-8.881-2.142,1.823-3.029,4.285-4.351,6.424-1.346,2.178-2.557,4.439-3.943,6.868a13.789,13.789,0,0,0,2.081,1.917c4.684,2.788,9.415,5.5,14.119,8.25,1.367,0.8,2.7,1.661,4.166,2.57-0.457,2.448-1.816,4.171-3.239,6.1-3.621-1.194-6.542-3.469-9.727-5.213-3.373-1.848-6.693-3.8-9.987-5.785-3.127-1.886-6.466-3.451-9.6-5.874,8.809-15.2,17.481-30.164,26.172-45.12a10.972,10.972,0,0,1,1.315-1.506c1.354,0.726,2.66,1.333,3.871,2.092A394.892,394.892,0,0,0,352.8,840.981c2.2,0.927,4.315,2.043,6.388,3.033-0.5,3.509-.5,3.509-2.794,6.91l-13.747-6c-2.023.521-2.195,2.169-2.758,3.409-5.169,11.39-10.268,22.812-15.4,34.217-0.646,1.435-1.056,3.029-2.453,4.207A30.96,30.96,0,0,1,314.046,882.968ZM823.618,772.626l-5.53,5.558a90.771,90.771,0,0,1-7.219-6.72c-2.3-2.238-4.574-4.509-6.867-6.758s-4.589-4.492-6.893-6.729c-2.228-2.163-4.37-4.431-6.668-6.512q-0.393.3-.784,0.6c0.2,0.887.339,1.793,0.609,2.658q4.166,13.325,8.369,26.637c0.288,0.918.6,1.831,0.837,2.763,0.964,3.819-1.711,6.849-5.509,6.158a47.836,47.836,0,0,1-4.629-1.287q-12.933-3.735-25.869-7.467c-0.869-.249-1.778-0.36-3.43-0.684,3.208,4,6.523,6.767,9.558,9.795q4.435,4.42,8.911,8.8c3.075,3.024,6.157,6.04,9.4,9.218a23.424,23.424,0,0,1-5.378,5.633c-3.45-2.521-36.1-34.527-38.657-37.909,1.313-1.352,2.749-2.647,3.961-4.125,1.686-2.055,3.672-2.232,6.04-1.531,11.218,3.323,22.451,6.593,33.676,9.891,0.9,0.264,1.759.844,2.9,0.044-0.112-.506-0.2-1.105-0.378-1.673q-5.4-16.971-10.821-33.936c-0.195-.612-0.418-1.214-0.6-1.83a3.038,3.038,0,0,1,.73-3.122c1.653-1.743,3.327-3.466,5.162-5.374a14.15,14.15,0,0,1,2.025,1.364q17.571,17.169,35.1,34.379C822.227,771.018,822.725,771.634,823.618,772.626ZM130.033,403.533a28.5,28.5,0,0,1-2.339,11.737c-4.948,11.964-16.009,17.935-28.6,16.276a34.885,34.885,0,0,1-9.178-2.673c-10.3-4.477-17.8-14.965-15.221-29.59a28.467,28.467,0,0,1,4.345-11.119c6.294-9.317,15.2-12.866,26.137-11.617a28.614,28.614,0,0,1,9.638,2.834C124.739,384.375,129.979,392.33,130.033,403.533Zm-8.025,1.281c-0.073-6.6-2.322-11.014-6.811-14.216a26.289,26.289,0,0,0-15.877-4.691,19.31,19.31,0,0,0-6.536,1.367c-6.369,2.42-9.289,7.541-10.263,13.987-0.995,6.581.9,12.107,6.343,16.108a24.965,24.965,0,0,0,16.772,4.824c8.8-.587,13.383-5.446,15.438-12.287A37.212,37.212,0,0,0,122.008,404.814Zm27.315,336.6a21.045,21.045,0,0,1,2.182-10.055c4.829-9.954,12.8-15.873,23.675-17.566a23.024,23.024,0,0,1,16.08,3.63c8.358,5.284,13.292,12.882,14.372,22.736a22.989,22.989,0,0,1-3.313,14.3,30.849,30.849,0,0,1-22.6,15.467,22.311,22.311,0,0,1-10.436-1.017C157.3,765.084,148.823,752.27,149.323,741.41Zm25.978,19.7a32.387,32.387,0,0,0,4.719-.754,25.571,25.571,0,0,0,14.542-11.191,15.523,15.523,0,0,0,.066-17.294c-3.564-5.819-8.5-9.681-15.729-9.163-8.538.613-14.7,5.316-18.914,12.4C152.472,747.733,165.252,762.011,175.3,761.109ZM448.564,119.518c-12.493.553-24.439-8.229-26.629-23.3a30.93,30.93,0,0,1,.476-12.414,25.041,25.041,0,0,1,15.15-17.516,29.79,29.79,0,0,1,19.283-1.5,24.637,24.637,0,0,1,15.2,10.975,29.88,29.88,0,0,1,4.124,22.623c-2.844,14.1-13.909,20.131-24.242,21.118C450.815,119.61,449.685,119.518,448.564,119.518ZM430.957,90.551A29.017,29.017,0,0,0,434.2,103.1a15.353,15.353,0,0,0,9.833,7.915,20.05,20.05,0,0,0,13.188-1.036,14.773,14.773,0,0,0,8.618-9.2,24.709,24.709,0,0,0-2.97-22.085,14.158,14.158,0,0,0-11.7-6.591,27,27,0,0,0-5.277.17c-6.963,1.057-11.8,4.783-13.79,11.689A58.517,58.517,0,0,0,430.957,90.551ZM215.567,218.523c-0.989-2.27-2.94-3.223-4.345-4.641-1.467-1.479-3.07-2.822-4.611-4.227s-3.081-2.812-4.621-4.219q-2.132-1.947-4.264-3.9c-1.542-1.4-3.135-2.756-4.619-4.219-1.461-1.441-3.266-2.575-4.392-4.547,1.182-2.22,2.956-3.786,4.894-5.629a14.278,14.278,0,0,1,1.926,1.255q18.512,16.84,36.985,33.723a8.367,8.367,0,0,1,.881,1.13c-0.388,1.707-1.723,2.684-2.819,3.808a4.267,4.267,0,0,1-3.474,1.346c-0.8-.059-1.6-0.038-2.4-0.1-10.226-.813-20.45-1.659-30.679-2.442-3.836-.3-7.682-0.46-11.525-0.65a1.977,1.977,0,0,0-.794.41,1.325,1.325,0,0,0-.163.448,0.729,0.729,0,0,0,.191.423,13.346,13.346,0,0,0,.99,1.041q12.445,11.347,24.9,22.688a1.454,1.454,0,0,1,.264.4c0.076,0.14.129,0.293,0.286,0.658a21.25,21.25,0,0,1-5.065,5.61c-0.756-.537-1.429-0.931-2-1.435-16.262-14.265-35.048-31.734-37.768-35.133,0.793-.942,1.6-1.914,2.423-2.876a5.462,5.462,0,0,1,5.125-1.88c7.5,0.687,15.023,1.132,22.534,1.713,5.912,0.458,11.819.982,17.729,1.471A8.924,8.924,0,0,0,215.567,218.523ZM685.862,878.645c-3.389,2.533-6.336,3.118-10,1.035-11.013-6.262-22.178-12.258-33.291-18.344-1.525-.835-3.091-1.592-4.546-2.338-1.275,1.052-.468,1.906-0.126,2.706,3.907,9.147,7.864,18.274,11.74,27.434,0.606,1.43,1.687,2.79,1.185,4.737a16.482,16.482,0,0,1-6.594,2.626c-0.521-.88-1.071-1.649-1.46-2.492-6.956-15.047-18.393-42.455-19.478-46.662,1.009-1.58,2.84-1.9,4.443-2.453a4.689,4.689,0,0,1,2.774.235,19.339,19.339,0,0,1,2.983,1.548q16.666,9.139,33.334,18.276c1.341,0.733,2.58,1.826,4.127,1.729a2.785,2.785,0,0,0,.446-0.59,0.764,0.764,0,0,0-.032-0.474q-6.741-15.953-13.5-31.9a2.284,2.284,0,0,1-.128-0.463c-0.03-.157-0.037-0.319-0.082-0.738,1.708-1.862,4.25-2.257,6.8-3.368,2.966,5.345,4.916,10.928,7.317,16.294,2.489,5.564,4.814,11.2,7.183,16.821C681.256,867.694,683.75,873.046,685.862,878.645Zm-112.592-.887c0.324-7.5,4.808-15.333,13.912-20.279a29.95,29.95,0,0,1,20.5-3.052,22.641,22.641,0,0,1,11.742,6.207c7.335,7.247,10.452,16.186,8.992,26.283-1.7,11.741-9.161,18.695-20.327,21.821a26.914,26.914,0,0,1-13.3.542A25.653,25.653,0,0,1,577.5,896.611C574.625,891.678,573.151,886.3,573.27,877.758Zm27.474,23.781c0.8,0,1.61.065,2.4-.01,8.575-.807,14.968-6.444,15.879-14.817a24.253,24.253,0,0,0-6.766-20.329c-8.753-8.942-25-3.623-28.435,6.5a13.436,13.436,0,0,0-.4,1.386c-1.9,8.448.21,15.94,5.749,22.4A13.935,13.935,0,0,0,600.744,901.539ZM861.1,686.267c-5.055-4.277-10.57-7.142-15.906-10.3-5.228-3.092-10.593-5.954-16.032-9.361l3.83-6.675a13.174,13.174,0,0,1,2.252.78q21.7,12.453,43.376,24.961a11.887,11.887,0,0,1,1.318,1.082,11.459,11.459,0,0,1-2.033,4.114,4.706,4.706,0,0,1-3.547,2.187c-3.812.515-7.6,1.179-11.411,1.719-9.839,1.4-19.684,2.746-29.521,4.153-1.24.178-2.447,0.591-4.241,1.036a21.8,21.8,0,0,0,2.417,1.978c8.474,4.891,16.972,9.741,25.455,14.617,1.372,0.789,2.7,1.651,4.244,2.6a19.4,19.4,0,0,1-3.849,6.8A21.035,21.035,0,0,1,855.2,725q-22.1-12.67-44.155-25.355a7.873,7.873,0,0,1,2.45-5.363,5.625,5.625,0,0,1,2.944-1.395c2.507-.516,5.054-0.848,7.592-1.206,10-1.414,20-2.8,29.991-4.221C856.392,687.125,858.741,686.669,861.1,686.267ZM721.735,840.076c-3.78-6.32-6.98-11.674-10.183-17.026-3.11-5.2-6.293-10.351-9.339-15.679a26.47,26.47,0,0,1,6.5-4.209,12.248,12.248,0,0,1,1.534,1.721q12.882,21.441,25.71,42.916a13.78,13.78,0,0,1,.66,1.542,10.34,10.34,0,0,1-4.65,3.019,3.88,3.88,0,0,1-2.3.073c-1.69-.478-3.336-1.124-4.981-1.752q-17.5-6.686-35-13.4a5.74,5.74,0,0,0-3.956-.6c1.982,3.94,4.307,7.369,6.4,10.929,2.028,3.458,4.158,6.857,6.155,10.333,2.06,3.586,4.566,6.931,6.255,11.049l-6.4,3.912a24.687,24.687,0,0,1-1.852-2.35q-12.4-20.608-24.755-41.248c-0.483-.805-0.821-1.7-1.212-2.519,1.058-1.75,2.732-2.423,4.305-3.139s3.114-.055,4.634.532q10.981,4.239,21.987,8.416,8.529,3.255,17.064,6.5C719.017,839.358,719.773,839.516,721.735,840.076Zm-13.3-666.516c-13.088-.093-25.139-9.766-27.8-22.339A24.983,24.983,0,0,1,681,139.794a30.634,30.634,0,0,1,9.5-15.837c7.119-6.281,15.377-8.344,24.579-5.732a30.031,30.031,0,0,1,14.17,8.685,25.068,25.068,0,0,1,6.181,24.076,30.423,30.423,0,0,1-11.353,17.375A24.023,24.023,0,0,1,708.435,173.56Zm-19.344-25.543a36.8,36.8,0,0,0,1.448,6.131c4.636,11.3,19.6,14.553,28.442,6.19a25.51,25.51,0,0,0,7.953-15.041,16.792,16.792,0,0,0-.282-6.177c-1.7-7.164-6.821-10.893-13.5-12.994A14.06,14.06,0,0,0,701.13,127.7C693.805,132.235,690.189,139.133,689.091,148.017Zm43.339,45.949a32.629,32.629,0,0,1-6.025-5.227c2.708-3.63,5.651-6.977,8.463-10.423,2.839-3.479,5.709-6.932,8.564-10.4s5.66-6.974,8.581-10.382c2.891-3.372,5.361-7.13,8.95-10.235,1.259,0.943,2.4,1.772,3.51,2.636a4.191,4.191,0,0,1,1.538,3.389c0.036,1.442-.011,2.887-0.047,4.33q-0.47,18.76-.931,37.52c-0.031,1.352-.507,2.852.927,4.334,2.239-2.28,3.956-4.777,5.907-7.059,1.98-2.315,3.891-4.689,5.828-7.041s3.862-4.713,5.8-7.06,3.89-4.671,5.967-7.163c2.545,1.028,4.279,2.819,6.216,4.747A15.679,15.679,0,0,1,794.465,178q-15.735,19.136-31.5,38.25a13.988,13.988,0,0,0-1.059,1.788c-1.433-.977-2.34-1.567-3.217-2.2a5.851,5.851,0,0,1-2.5-5.375c0.285-8.175.462-16.353,0.659-24.53q0.208-8.66.351-17.32a23.572,23.572,0,0,0-.236-2.645c-1.5-.228-1.9.786-2.465,1.475q-9.5,11.5-18.973,23.013C734.623,191.559,733.642,192.6,732.43,193.966ZM543.851,899.44c-0.142,6.8,2.242,13.465,2.106,20.636-2.911.578-5.62,1.44-8.5,1.154-1.273-3.961-7.549-48.51-7.459-53.18a15.817,15.817,0,0,1,2.915-1.021c4.594-.715,9.192-1.444,13.814-1.922a42.654,42.654,0,0,1,8.171-.072c6.744,0.608,11.551,4.441,13.128,10.291,1.8,6.689.181,12.373-5.191,16.869-0.977.818-2.006,1.575-3,2.375a0.477,0.477,0,0,0-.137.273c5.939,6.588,11.836,13.123,17.712,19.678a2.717,2.717,0,0,1,.217,1.064c-0.908.239-1.815,0.541-2.747,0.712-6.413,1.179-6.856,1.02-11.2-3.914-3.289-3.737-6.561-7.489-9.862-11.215-1.055-1.191-2.01-2.536-3.748-2.849A12.393,12.393,0,0,0,543.851,899.44ZM542.66,891.7a22.528,22.528,0,0,0,12.222-2.191,7.31,7.31,0,0,0,1.922-1.421,9.213,9.213,0,0,0,2.49-9.264c-0.773-3.261-2.742-5.581-5.985-6.209a23.115,23.115,0,0,0-13.285,1.352A172.552,172.552,0,0,0,542.66,891.7ZM180.449,787.363L218.1,748.821a16.74,16.74,0,0,1,2.157,1.475c3.58,3.45,7.248,6.822,10.63,10.458a41.066,41.066,0,0,1,5.746,7.655c3.025,5.36,2.916,10.77-1.063,15.729-4.189,5.221-9.575,7.315-16.2,5.828-1.244-.279-2.47-0.634-3.709-0.936a0.908,0.908,0,0,0-.385.069c-1.541,8.839-3.08,17.658-4.6,26.365-1.658.585-2.265-.6-2.981-1.34-4.569-4.706-5.385-3.591-3.639-11.7,0.978-4.543,1.5-9.2,2.7-13.677,0.972-3.641.03-6.259-2.795-8.444-0.491-.379-1.012-0.718-1.616-1.143-2.175,1.043-3.441,2.962-5.027,4.484-1.734,1.666-3.358,3.446-5.039,5.167-1.56,1.6-3.132,3.181-4.811,4.885C184.553,792.1,182.86,789.606,180.449,787.363Zm40.065-26.831a96.766,96.766,0,0,0-12.972,13.262c2.447,3.705,6.061,6.979,9.05,8.2,4.109,1.678,8.192.588,11.139-2.972,2.563-3.1,2.655-6.94.238-10.639a9.81,9.81,0,0,0-1.159-1.522C224.81,764.816,222.78,762.8,220.514,760.532ZM879.842,446.547c-0.62-3.062-.97-5.085-1.45-7.077a5.816,5.816,0,0,1,1.893-6.051c3.605-3.425,7.076-6.991,10.6-10.5,0.91-.905,1.79-1.843,2.74-2.7a5.256,5.256,0,0,0,1.636-6.079c-0.308-.9-0.451-1.848-0.734-3.047a12.758,12.758,0,0,0-2.746-.072c-5.189,1-10.359,2.1-15.542,3.13-0.759.152-1.548,0.155-2.486,0.241a24.767,24.767,0,0,1-1.871-8.637c4.192-1.83,8.705-2.067,13.02-3.061,4.367-1.007,8.8-1.728,13.2-2.6s8.777-1.839,13.183-2.667c4.377-.822,8.684-2.08,13.181-2.36a5.109,5.109,0,0,1,.762,1.317c1.2,6.136,2.358,12.28,3.524,18.423a21.1,21.1,0,0,1-.159,7.647c-0.965,5.542-3.855,9.424-9.241,11.266-5.775,1.975-11.066,1.125-15.708-2.939a36.6,36.6,0,0,1-2.585-2.839c-0.518-.563-1.072-1.093-1.544-1.571Zm21.895-37.22c-0.191,4.126.9,9.048,2.565,11.709,2.849,4.546,6.652,5.182,11.267,4.05,4.031-.989,6.381-4.614,6.012-9.255a29.309,29.309,0,0,0-2.121-9.914,11.126,11.126,0,0,0-2.426.024C911.935,407.163,906.659,407.638,901.737,409.327ZM247.323,148.949a5.492,5.492,0,0,1,.647,1.178c0.857,5.086.808,6.259-4.682,7.1a21.192,21.192,0,0,0-13.6,8.406,15.767,15.767,0,0,0-2.777,15,24.753,24.753,0,0,0,11.329,14.415,16.488,16.488,0,0,0,16.974.445c4.671-2.427,8.34-5.9,10.276-10.81-0.4-2.034-1.866-3.16-2.921-4.54-0.961-1.257-2.051-2.415-3.141-3.682-2.892.808-4.381,3.486-7.109,4.507-1.92-.927-2.932-2.7-4-4.391,2.26-2.776,8.819-8.23,12.895-10.769,2.546,2.058,9.08,9.877,13.566,16.256a12.063,12.063,0,0,1-2.091,6.153c-5.561,9.527-13.54,15.661-24.645,17.371a22.849,22.849,0,0,1-13.573-2.048c-8.627-4.111-14.061-10.97-16.62-20.107a23.177,23.177,0,0,1,2.85-18.966,33.055,33.055,0,0,1,19.816-15.058A16.152,16.152,0,0,1,247.323,148.949ZM141.181,260.11a15.9,15.9,0,0,1,2.938,5.565c-0.523,2.016-2.1,2.6-3.476,3.381a21.965,21.965,0,0,0-9.417,10.632c-2.882,6.61-2.251,12.954,2.57,18.439,4.866,5.535,11,8.732,18.552,8.75a15.015,15.015,0,0,0,9.01-2.909c5.657-4.1,8.616-9.717,9.266-16.749a35.859,35.859,0,0,0-8.658-5.275c-1.819.942-2.288,2.765-3.233,4.187-1.7,2.56-2.282,2.736-5.043,1.133-0.8-.462-1.508-1.07-2.456-1.754,2.627-5.009,5.512-9.6,8.378-14.387a7.41,7.41,0,0,1,1.908.461c5,2.893,9.946,5.878,14.965,8.737a4.009,4.009,0,0,1,2.308,4.325,52.321,52.321,0,0,1-1.007,7.13,34.115,34.115,0,0,1-10.664,17.4c-8.617,7.4-18.232,8.923-28.662,4.251a34.411,34.411,0,0,1-5.831-3.34c-11.026-7.842-14.53-20.427-9.073-32.8,3.13-7.094,7.738-12.934,14.975-16.291C139.248,260.669,140.036,260.49,141.181,260.11Zm756.9,71.326c-1.044.087-1.674,0.188-2.3,0.184-4.107-.024-5.239-0.91-4.863-5.1a22.112,22.112,0,0,0-2.316-11.654c-4.231-8.854-11.266-11.971-20.554-10.1a23.7,23.7,0,0,0-12.824,7.169,16.748,16.748,0,0,0-4.186,16.893,21.865,21.865,0,0,0,8.193,12.23,37.048,37.048,0,0,0,9.2-4.348c0.029-1.941-1.122-3.368-1.781-4.945-1.207-2.886-1.057-3.36,1.828-4.825,0.7-.356,1.446-0.626,2.354-1.013,2.249,2.085,2.936,4.965,4.257,7.439,1.274,2.384,2.321,4.888,3.566,7.549a19,19,0,0,1-2.421,1.731c-5.463,2.685-10.952,5.317-16.535,8.015a13.365,13.365,0,0,1-5.608-3.488c-7.79-7.29-11.851-16.19-11.413-26.986a22.8,22.8,0,0,1,4.8-13.37A29.792,29.792,0,0,1,872.5,294.808c7.886,0.1,14.156,3.735,19.024,9.784a35.207,35.207,0,0,1,7.609,18.928C899.393,326.116,898.8,328.592,898.077,331.436ZM110.784,314.69l3.42,5.054c-0.425,2.447-2.171,3.2-3.462,4.345a22.178,22.178,0,0,0-8.011,17.32,15.012,15.012,0,0,0,2.248,7.763C109.415,356.6,120.9,361.3,129.3,359.213a16.451,16.451,0,0,0,9.771-6.545,21.663,21.663,0,0,0,4.35-15.456,37.149,37.149,0,0,0-9.275-3.866c-1.708,1.477-1.975,3.478-2.805,5.161-0.957,1.942-1.768,2.3-3.84,1.611a12.6,12.6,0,0,1-1.76-.771,12.39,12.39,0,0,1-1.151-.748c0.411-3.251,3.49-11.172,6.129-15.721a13.349,13.349,0,0,1,2.195.5c5.054,2.035,10.059,4.2,15.145,6.144a4.461,4.461,0,0,1,3.108,4.305,33.144,33.144,0,0,1-9.775,27.641c-7.294,7.348-16.231,9.3-26.163,6.439a32.421,32.421,0,0,1-9.914-4.8,25.522,25.522,0,0,1-10.225-27.123,35.3,35.3,0,0,1,6.961-14.649C104.592,318.217,106.361,316.862,110.784,314.69Zm772.3,207.952c-1.428-10.831,0-9.53,6.286-12.031,2.074-.825,4.156-1.63,6.089-2.388,0.775-3.914.8-18.694,0.067-23.388-2.177-1.507-4.873-2.07-7.4-3.007-5.8-2.151-5.808-2.128-5.713-8.263,0.012-.791.09-1.58,0.145-2.487,2-.786,3.5.417,5.035,1q20.2,7.761,40.358,15.64l8.589,3.338c0.768,3.268.346,6.443,0.331,9.92-8.723,3.961-17.741,7.22-26.615,10.82S892.45,518.909,883.082,522.642Zm44.637-26.653c-8.284-2.908-15.809-5.561-23.35-8.167a4.1,4.1,0,0,0-1.567.239,21.33,21.33,0,0,0-.336,5.689c-0.029,1.923-.06,3.851.03,5.771,0.086,1.826-.426,3.787.927,5.751,7.717-2.621,15.131-5.553,22.605-8.312A15.179,15.179,0,0,0,927.719,495.989ZM574.546,109.144c-2.3,2.065-3.441,4.575-4.909,6.833-3.427,5.273-3.578,5.359-9.736,3.8-0.75-.189-1.5-0.38-2.325-0.59a4.956,4.956,0,0,1,.337-1.539q15.592-23.387,31.265-46.8a28.335,28.335,0,0,1,9.751,1.978c1.518,6.138,2.161,12.5,3.2,18.781,1.049,6.321,2.142,12.637,3.074,18.976,0.926,6.308,2.332,12.554,2.778,18.93-2.265.293-6.225-.26-7.486-1a4.521,4.521,0,0,1-2.075-3.607c-0.365-2.7-.711-5.4-1.094-8.1-0.11-.777-0.32-1.54-0.541-2.579C589.427,112.077,581.9,110.823,574.546,109.144Zm4.132-6.285c5.045,1.968,13.456,3.62,16.667,3.287,0.212-4.256-2.007-20.922-3.266-24.539a1.938,1.938,0,0,0-.826.385q-6.206,9.735-12.341,19.513A3.738,3.738,0,0,0,578.678,102.859ZM833.723,215.952l5.938,7.255c-2.151,5.169-25.836,47.895-28.172,50.812a25.264,25.264,0,0,1-4.634-5.377,3.248,3.248,0,0,1,.056-3.646c1.1-1.96,2.238-3.895,3.34-5.853,0.776-1.378,1.517-2.775,2.194-4.019-2.085-3.661-11.662-15.233-15.066-18.188-2.666.93-5.518,1.93-8.373,2.922-4.738,1.647-4.834,1.621-8.1-2.331-0.612-.74-1.213-1.493-1.771-2.275a4.431,4.431,0,0,1-.311-1.185c5.819-2.477,11.978-4.113,17.98-6.174,6.06-2.082,12.169-4.024,18.271-5.984C821.152,219.956,827.133,217.677,833.723,215.952Zm-4.567,10.215a2.956,2.956,0,0,0-1.126-.258q-11.05,4.017-22.075,8.1a2.193,2.193,0,0,0-.631.7c1.949,3.587,8.08,10.918,11.217,13.291,4.346-6.546,7.911-13.536,12.026-20.187A8.283,8.283,0,0,0,829.156,226.167Zm-540.969-109.8,8.038-4.314c0.651,0.09.81,0.1,0.962,0.136a1.115,1.115,0,0,1,.45.161q20.982,17.64,41.96,35.287c0.49,0.412,1.066.722,1.858,1.25a20.952,20.952,0,0,1-6.885,4.18,2.943,2.943,0,0,1-3.125-.7c-1.7-1.466-3.385-2.948-5.09-4.406-1.324-1.132-2.67-2.238-4.159-3.484l-19.869,10.777c-0.492,2.9.079,5.4,0.5,7.917,1.1,6.591.866,7.044-5.137,10.035a11.423,11.423,0,0,1-1.631.552,3.074,3.074,0,0,1-.613-0.292,0.728,0.728,0,0,1-.243-0.4C292.876,154.312,290.559,135.56,288.187,116.368ZM300.76,147.61c2.395,0.374,3.845-1.108,5.508-1.911a61.4,61.4,0,0,0,5.472-2.964c1.568-.965,3.622-1.316,4.691-3.551-6.061-5.431-12.128-10.832-18.293-16.123a2.864,2.864,0,0,0-1.2.075C298.256,131.295,299.159,139.493,300.76,147.61ZM64.482,519.317c-0.393-5.572-.477-10.69-0.48-15.8a71.144,71.144,0,0,1,.634-8.134,18.285,18.285,0,0,1,.935-3.715c2.547-7.531,8.4-11.491,17.177-10.9,8.075,0.547,13.328,5.105,15.264,13.01a61.1,61.1,0,0,1,1.02,8.557c0.216,2.2-.281,4.461.553,6.8,3.01,0.915,6.054.264,9.049,0.329,3.021,0.066,6.044.015,9.318,0.015a17.765,17.765,0,0,1,.353,8.43c-1.316,1.311-2.834,1.013-4.229,1.039q-15.861.294-31.725,0.5c-4.487.061-8.974,0.057-13.462,0.054C67.633,519.505,66.376,519.4,64.482,519.317Zm26.994-10.344a31.753,31.753,0,0,0,.032-10.406c-0.78-5.178-4.316-8.061-9.61-8.2a17.476,17.476,0,0,0-2.865.148,8.266,8.266,0,0,0-6.809,5.347c-1.355,3.221-1.434,9.791-.2,13.546C76.478,510.386,87.6,510.16,91.476,508.973Zm46.575,188.674c-3.062,1.8-5.667,3.326-8.27,4.858-2.619,1.543-5.234,3.092-8,4.724-2.3-2.228-3.56-4.944-5.028-7.943,14.932-8.995,29.746-17.924,44.575-26.831a9.859,9.859,0,0,1,1.915-.644c0.51,0.713,1.014,1.324,1.419,2,2.653,4.394,5.305,8.789,7.918,13.208a26.063,26.063,0,0,1,3.88,11.273,14.7,14.7,0,0,1-5.5,13.2,21.355,21.355,0,0,1-6.664,3.75,15.087,15.087,0,0,1-13.776-1.752,25.831,25.831,0,0,1-7.838-8.352C141.243,702.833,139.827,700.518,138.051,697.647Zm6.512-4.009c1.837,3.989,3.6,7.388,6.258,10.163,5.389,5.633,15.179,3.088,17.277-4.438a8.812,8.812,0,0,0,.269-3.3c-0.405-3.506-3.792-9.432-7.069-12.461ZM769.841,815.274a19.615,19.615,0,0,1,4.269,5.294c-2.571,2.648-21.377,17.423-26.344,20.71-3.29-3.01-5.62-6.868-8.425-10.319-2.833-3.484-5.524-7.084-8.278-10.633s-5.514-7.092-8.263-10.645-5.464-7.084-8.147-10.564c2.373-2.858,19.787-16.647,26.275-20.87,2,1.069,2.887,3.186,4.407,5.077-0.848.824-1.563,1.651-2.405,2.315-4.28,3.38-8.6,6.706-12.888,10.077-1.114.876-2.153,1.849-3.168,2.727a51.479,51.479,0,0,0,9.7,12.465l14.479-10.981c2.076,1.242,3.085,3,4.291,5.027a21.79,21.79,0,0,1-1.956,2.011c-3.136,2.5-6.324,4.932-9.469,7.419-0.99.784-1.905,1.663-2.814,2.463a60.208,60.208,0,0,0,9.6,12.5,22.534,22.534,0,0,0,2.685-1.552c4.328-3.317,8.606-6.7,12.923-10.031C767.433,816.9,768.629,816.125,769.841,815.274ZM913.8,380.769c-1.447-4.284-2.691-8.079-4.013-11.847-1.265-3.608-2.12-7.371-3.805-10.763a48.243,48.243,0,0,0-14.8,4.831c0.321,2.947,1.66,5.7,2.515,8.571,0.865,2.906,1.857,5.773,2.814,8.722-1.642,1.749-3.737,1.918-5.942,2.51a14.342,14.342,0,0,1-1.4-2.392c-1.325-3.783-2.543-7.6-3.837-11.4-0.406-1.191-.926-2.342-1.353-3.412-3.761.136-11.788,2.751-15.229,4.956,1.865,7.48,5.037,14.672,6.923,22.289-1.864,1.508-3.942,1.748-6.106,2.481a9.564,9.564,0,0,1-1.289-1.974q-4.772-14.38-9.446-28.793a4.994,4.994,0,0,1-.011-1.2c3.887-1.983,8.26-2.956,12.44-4.426,4.23-1.489,8.518-2.811,12.775-4.223s8.5-2.863,12.762-4.264c4.229-1.39,8.47-2.739,12.631-4.082,2.006,3.417,8.566,22.6,10.862,31.55a1.929,1.929,0,0,1-.535.729C917.982,379.307,916.181,379.925,913.8,380.769ZM808.068,702.342a16.881,16.881,0,0,1,5.678,4.334c-4.362,6.6-9.506,12.53-13.717,18.985,2.429,2.989,8.475,7.588,12.515,9.545,4.053-4.413,7.15-9.7,11.058-14.262,2.9,1.115,2.9,1.115,5.578,3.805-3.049,5.2-7.318,9.622-10.46,14.754,1.921,2.706,7.815,7.279,12.58,9.745,2-1.5,3.188-3.816,4.747-5.793,1.69-2.141,3.271-4.368,4.906-6.552,1.527-2.042,3.062-4.077,4.669-6.215,2.533,0.622,3.938,2.376,5.931,3.772-2.9,5.115-6.6,9.317-9.854,13.822-3.186,4.414-6.494,8.741-9.888,13.292a14.316,14.316,0,0,1-2.219-1.089q-20.09-14.935-40.146-29.913c-0.385-.287-0.768-0.577-1.34-1.007,2.957-5.011,6.594-9.242,9.855-13.73C801.245,711.318,804.552,706.812,808.068,702.342ZM395.022,904.474a12.926,12.926,0,0,1-1.79,6.247,7.861,7.861,0,0,1-2.174-.027q-13.865-3.963-27.7-8.029a20.686,20.686,0,0,1-2.037-.866,13.551,13.551,0,0,1,.222-2.712q6.765-23.6,13.614-47.166a16.4,16.4,0,0,1,.941-2.029c5.5,0.976,10.733,2.911,16.075,4.392,5.234,1.452,10.435,3.022,15.552,4.511,0.151,3.113.151,3.113-1.568,6.727-3.978-.117-7.634-1.886-11.469-2.848-3.7-.928-7.354-2.041-11.091-3.09-1.894,2.3-2.107,4.926-2.825,7.318-0.728,2.424-1.695,4.817-1.826,7.493,2.7,1.815,5.811,2.048,8.646,3.008,2.866,0.97,5.8,1.745,8.682,2.6,0.782,2.645-.891,4.416-1.031,6.777-6.543-1.192-12.157-3.641-18.007-4.709-1.756,1.278-1.685,3.206-2.253,4.82-0.584,1.662-1.029,3.377-1.46,5.087-0.421,1.672-1.33,3.278-.84,5.335,3.579,1.733,7.579,2.3,11.334,3.589C387.614,902.137,391.462,902.639,395.022,904.474Zm137.344-795.6a18.028,18.028,0,0,1-9.506,6.529,28.889,28.889,0,0,1-14.744.829c-12.354-2.379-18.875-11.134-20.445-22a33.891,33.891,0,0,1,.726-13.857c3.2-11.743,12.861-19.167,25.074-19.38a26.74,26.74,0,0,1,17.1,5.313c0.641,0.481,1.289.952,1.968,1.453a16.25,16.25,0,0,1-1,2.034c-3.073,4.3-3.149,4.357-7.591,1.737a19.193,19.193,0,0,0-14.427-1.945,14.139,14.139,0,0,0-9.835,7.854A24.573,24.573,0,0,0,499.17,99.3c2.844,6.267,8.345,9.744,16.428,9.463a17.188,17.188,0,0,0,10.286-3.535c1.632-1.273,2.392-1.106,3.729.317C530.573,106.563,531.408,107.705,532.366,108.876Zm-190.242,34.01c0.188-1.5.231-2.45,0.434-3.362,0.864-3.884,1.208-4,5.192-3.509a43.38,43.38,0,0,0,7.648.311,11.43,11.43,0,0,0,7.3-3.34,7.131,7.131,0,0,0,2.055-7.483c-0.8-2.878-2.5-4.874-5.571-5.258a39.21,39.21,0,0,0-5.724-.247c-2.721.061-5.442,0.451-8.158,0.405-5.759-.1-10.191-2.523-12.709-7.908s-2.259-10.579,1.1-15.521a13.163,13.163,0,0,1,2.544-2.869c6.659-5.354,14.028-7.335,22.471-4.692a8.471,8.471,0,0,1-.81,6.624c-2.045.992-4.135,0.278-6.182,0.2a13.9,13.9,0,0,0-9.463,2.823,6.644,6.644,0,0,0-2.764,5.838c0.153,2.917,1.506,4.858,4.311,5.7a15.346,15.346,0,0,0,4.253.557c3.367,0.026,6.736-.1,10.1-0.164,5.507-.114,10.213,1.5,12.948,6.627,3.08,5.771,3.4,11.667-.212,17.379a15.7,15.7,0,0,1-3.453,3.968C359.916,144.855,351.611,146.054,342.124,142.886Zm62.363-65.815a22.842,22.842,0,0,1-.27,2.993c-0.651,3.111-1.431,3.655-4.718,2.859-3.338-.808-6.633-1.282-9.9.076a14.8,14.8,0,0,0-3.73,2.116c-3.685,3.036-2.745,9.636,1.915,10.924a20.545,20.545,0,0,0,3.258.73c3.187,0.338,6.382.595,9.577,0.856,10.51,0.859,16.132,8.157,14.205,18.538a14.3,14.3,0,0,1-4.514,8.31,23.516,23.516,0,0,1-5.516,3.765c-6.57,3.041-13.336,2.971-20.116.644a11.225,11.225,0,0,1-1.935-1.092c-0.651-2.057.261-3.659,0.878-5.271a2.529,2.529,0,0,1,3.146-1.556c1.4,0.338,2.747.869,4.136,1.246a15.008,15.008,0,0,0,11.623-1.325,7.252,7.252,0,0,0,4.07-6.6c0.039-3.9-1.734-6.422-5.559-7.34a47.886,47.886,0,0,0-6.649-.816c-2.546-.241-5.112-0.3-7.648-0.617-10.6-1.315-15.255-14.769-8.816-23.231a17.291,17.291,0,0,1,4.531-4.232,23.417,23.417,0,0,1,20.3-2.365,5.512,5.512,0,0,1,1.239.72A3.592,3.592,0,0,1,404.487,77.071ZM149.846,667.912c-1.348-1.71-.851-3.165-0.724-4.581a14.153,14.153,0,0,0-1.923-8.79,12.021,12.021,0,0,0-3.551-3.805,6.157,6.157,0,0,0-9.447,3.881,29.554,29.554,0,0,0-.086,7.158c0.144,3.361.623,6.715,0.623,10.072,0,5.333-2.687,9.1-7.418,11.437-7.829,3.87-16.206,1.954-21.426-5.079-4.777-6.436-6.007-13.7-4.378-21.476a7.2,7.2,0,0,1,.968-1.742,22.948,22.948,0,0,1,2.422.153c4.466,0.756,4.807,1.155,4.114,5.638a16.193,16.193,0,0,0,2.882,12.771,7.62,7.62,0,0,0,10.251,2.306,5.715,5.715,0,0,0,3.334-4.422,21.532,21.532,0,0,0,.2-4.3c-0.156-2.238-.533-4.46-0.791-6.692-0.146-1.273-.32-2.551-0.347-3.829-0.193-9.217,6.749-15.9,15.889-15.252a14.857,14.857,0,0,1,10.12,4.97,23.7,23.7,0,0,1,6.145,20,2.15,2.15,0,0,1-2.576,2.193,16.627,16.627,0,0,1-1.914-.19C151.43,668.22,150.652,668.058,149.846,667.912ZM662.561,92.389a14.57,14.57,0,0,1-2.123,6.661c-5.242-.977-9.9-3.629-14.913-4.575-1.636,1.2-1.788,2.888-2.3,4.355-3.943,11.357-7.814,22.739-11.779,34.088-0.568,1.624-.736,3.484-2.308,4.857-2.67-.159-5.017-1.566-7.344-2.209-0.98-1.813-.178-3.119.279-4.449q5.239-15.234,10.492-30.463c1.037-3.022,2.013-6.064,3.074-9.267-4.76-2.995-10.37-3.514-15.363-6.294l2.3-6.3C626.131,79.25,657.459,89.907,662.561,92.389ZM252.631,790.929c-3.911-3.858-8.411-6.695-12.469-10.324a15.022,15.022,0,0,1,4.3-5.538c3.44,1.859,29.684,22.414,33.184,25.979a17.191,17.191,0,0,1-4.369,5.555c-4.568-2.9-8.207-6.821-12.931-9.513-3.731,3.776-6.591,8.048-9.808,12.019-3.133,3.867-6.163,7.818-9.246,11.727-3.173,4.023-6.357,8.039-9.606,12.148-3.021-1.091-4.915-3.262-7.018-4.981-0.114-1.851,1.132-2.783,1.982-3.87q11.135-14.228,22.329-28.4C250.164,794.22,251.3,792.679,252.631,790.929ZM893.965,655.358l-3.388,7.663c-2.255.668-3.756-.54-5.311-1.191-10.925-4.572-21.8-9.251-32.71-13.873-1.592-.675-3.236-1.23-5.012-1.9-3.1,4.548-4.117,9.874-6.932,14.473-2.39-.181-4.276-1.3-6.365-2.478a7.229,7.229,0,0,1,.241-1.858q7.468-17.714,15-35.4a14.361,14.361,0,0,1,1.03-1.7c2.414,0.218,4.246,1.524,6.469,2.418-1.2,5.345-4.238,9.8-5.568,14.782,0.814,1.561,2.309,1.821,3.594,2.368q16.791,7.149,33.592,14.27C890.218,653.621,891.8,654.374,893.965,655.358ZM65.069,464.98c0.5-2.814.187-5.563,1.191-8.354,7.771,0.583,15.363,1.528,22.976,2.244,7.576,0.713,15.137,1.832,22.9,2.182,1.5-7.244,1.338-14.175,2.745-21,2.363-.8,4.5-0.184,6.971.054,0.575,5.262-.747,10.253-1.093,15.282-0.35,5.1-1.086,10.163-1.629,15.034-1.277,1.3-2.619.87-3.827,0.744-10.5-1.1-21-2.265-31.5-3.379-4.455-.473-8.92-0.854-13.377-1.307C68.72,466.31,66.891,466.539,65.069,464.98ZM826.711,284.691l11.357,17.987c-1.434,2.221-3.655,2.836-5.33,4.145a4.64,4.64,0,0,1-1.436-.839c-5.344-8.2-10.652-16.417-16.081-24.811a12.913,12.913,0,0,1,1.762-1.726q20.855-13.414,41.743-26.772a20.411,20.411,0,0,1,1.825-.92c2.289,1.963,3.388,4.663,4.976,7.117-0.945,1.671-2.631,2.352-4.073,3.281q-15.174,9.784-30.385,19.509C829.743,282.514,828.478,283.459,826.711,284.691ZM546.929,64.294c3.325-.651,6.014.394,8.777,0.776a7.619,7.619,0,0,1,.257,1.687q-2.806,24.616-5.669,49.225a17.871,17.871,0,0,1-.694,2.5,17.483,17.483,0,0,1-8.768-.97c0-5.882,1.214-11.683,1.745-17.535,0.551-6.067,1.282-12.122,2.108-18.159C545.482,75.989,545.844,70.089,546.929,64.294ZM146.22,243.282c1.795-2.69,3.188-5.18,5.422-6.985,3.407,1.847,39.287,28.134,43.351,31.768-1.115,2.6-3.13,4.642-4.953,7.152a11.709,11.709,0,0,1-2.129-.965Q167.937,259.6,148,244.894C147.5,244.52,147.062,244.049,146.22,243.282ZM933.979,448.166c0.081,3.656,1.314,6.253.485,9.342-17.646,1.938-35.281,3.851-52.8,5.491a14.229,14.229,0,0,1-.966-9.381C898.244,451.822,915.84,449.747,933.979,448.166ZM675.144,97.865l7.922,3.495a17.174,17.174,0,0,1-.7,2.807q-10.111,22.608-20.292,45.186a11.545,11.545,0,0,1-1,1.456c-2.79-.408-5.166-1.991-7.925-3.336a9.758,9.758,0,0,1,.408-2.286q10.222-22.823,20.517-45.614A18.365,18.365,0,0,1,675.144,97.865Zm-151.37,824.4h-8.961a24.221,24.221,0,0,1-.7-2.533,28.634,28.634,0,0,1-.343-3.349q-1.139-21.133-2.229-42.27c-0.086-1.722-.5-3.514.417-5.309a16.8,16.8,0,0,1,8.625-.519C521.865,886.154,522.556,903.9,523.774,922.269Z"/>
</svg>
