<svg xmlns="http://www.w3.org/2000/svg" xmlns:xlink="http://www.w3.org/1999/xlink" width="1000" height="1000" viewBox="0 0 1000 1000">
  <defs>
    <style>
      .cls-1 {
        fill: #9fb75c;
        fill-rule: evenodd;
        filter: url(#filter);
      }
    </style>
    <filter id="filter" x="64.969" y="187" width="875.031" height="638" filterUnits="userSpaceOnUse">
      <feFlood result="flood" flood-color="#fff"/>
      <feComposite result="composite" operator="in" in2="SourceGraphic"/>
      <feBlend result="blend" in2="SourceGraphic"/>
    </filter>
  </defs>
  <path id="Forme_4" data-name="Forme 4" class="cls-1" d="M912.4,789.664c-19.241,21.572-41.686,34.386-68.416,34.66C770,825.083,695.993,824.713,622,824.732c-148.283.039-296.567-.19-444.849,0.262-28.124.086-53.486-6.492-75.189-26.517-2.764-2.55-5.284-5.412-8.474-8.7,18.651-18.6,36.816-36.768,55.031-54.875Q265.9,618.2,383.2,501.4c4.688-4.681,7.629-5.031,12.86-1.2,16.736,12.24,33.471,24.6,50.953,35.5,37.067,23.113,74.8,23.205,111.856-.017,19.654-12.317,38.468-26.212,58.18-39.752ZM105.3,210.72c19.984-17.349,42.5-23.748,67.154-23.72q169,0.195,338.01.06,161.751,0,323.5-.036c24.374-.024,46.634,6.418,66.56,23.621-2.455,1.954-4.578,3.814-6.851,5.427Q714.526,343.245,535.451,470.542c-22.193,15.843-42.53,16.017-64.768.142Q291.831,343.015,112.465,216.2C110.119,214.53,107.877,212.694,105.3,210.72ZM67.065,721.813c-4.165-36.223-1.5-437.99,3.057-452.784L334.013,456.382Zm870.7-1.086L671.9,456.389l265.321-188.4C941.9,420.118,939.662,569.849,937.764,720.727Z"/>
</svg>
