<svg xmlns="http://www.w3.org/2000/svg" xmlns:xlink="http://www.w3.org/1999/xlink" width="1000" height="1000" viewBox="0 0 1000 1000">
  <defs>
    <style>
      .cls-1 {
        fill: #9fb75c;
        fill-rule: evenodd;
        filter: url(#filter);
      }
    </style>
    <filter id="filter" x="65" y="63" width="875" height="875" filterUnits="userSpaceOnUse">
      <feFlood result="flood" flood-color="#fff"/>
      <feComposite result="composite" operator="in" in2="SourceGraphic"/>
      <feBlend result="blend" in2="SourceGraphic"/>
    </filter>
  </defs>
  <path id="Forme_2" data-name="Forme 2" class="cls-1" d="M939.939,500.434q0,135.046.062,270.094c0.066,33.21-7,64.388-25.957,91.953-33.118,48.163-78.25,75.25-137.695,75.294-182.574.138-365.151-.336-547.724,0.226-82.384.253-144.592-61.892-158.516-123.059a194.034,194.034,0,0,1-4.852-42.379q-0.475-272.088-.17-544.176C65.13,159.1,105.713,98.962,168.71,74.017,189.069,65.955,210.289,62.992,232.071,63q270.373,0.049,540.748.089c72.437,0.086,123.019,35.155,154.163,99.357,10.385,21.408,13.023,44.72,13,68.4Q939.831,365.636,939.939,500.434ZM652.527,791.94c2.657,0,5.314.019,7.971-.011,0.827-.009,1.653-0.145,2.478-0.229,29.6-2.99,56.653-13.564,82.2-28.2,15.173-8.694,28.776-19.511,36.1-35.983a148.2,148.2,0,0,0,12.9-56.9c0.208-8.057-2.437-13.754-9.267-17.789-16.418-9.7-32.748-19.551-49.2-29.191q-30.672-17.973-61.5-35.69a94.682,94.682,0,0,0-11.031-5.7c-7.409-3.063-14.739-2.8-21.123,2.464a140.215,140.215,0,0,0-15.007,13.762c-13.143,14.529-25.672,29.617-38.933,44.035-13.436,14.606-20.457,15.746-38,6.067q-22.863-12.617-44.962-26.61c-55.017-34.853-98.764-80.721-131.986-136.635-7.785-13.1-15.024-26.536-22.2-39.983-5-9.358-3.325-18.2,4.184-25.46,8.7-8.409,17.794-16.41,26.845-24.445,9.919-8.807,20.532-16.907,29.856-26.295,13.484-13.576,13.993-22.745,3.914-39.052-2.441-3.949-5.233-7.681-7.794-11.559-1.917-2.905-3.872-5.8-5.55-8.845-13.137-23.824-26.06-47.767-39.392-71.481-4.378-7.786-9.737-15.023-14.7-22.473-3.317-4.975-7.942-6.876-14-6.876-15.619,0-30.552,3.271-45.473,7.576a74.865,74.865,0,0,0-43.981,32.981,298.724,298.724,0,0,0-18.7,35.048c-15.994,35.037-20.139,71.405-9.313,108.7,4.891,16.849,11.291,33.26,16.979,49.879a448.327,448.327,0,0,0,55.3,109.88c30.443,44.147,66.592,83.162,106.728,118.548,32.618,28.758,67.413,54.7,106.838,73.276,26.785,12.618,54.743,22.792,82.371,33.558A194.794,194.794,0,0,0,652.527,791.94Z"/>
</svg>
