<svg id="Calque_1" data-name="Calque 1" xmlns="http://www.w3.org/2000/svg" viewBox="0 0 30 30"><defs><style>.cls-1{fill:#fff;}</style></defs><path class="cls-1" d="M14,17.91l4.68-2.7L14,12.51Z"/><path class="cls-1" d="M15.41.82A14.39,14.39,0,1,0,29.8,15.21,14.39,14.39,0,0,0,15.41.82Zm9,14.4A23.82,23.82,0,0,1,24,19.55a2.28,2.28,0,0,1-1.59,1.59,54.83,54.83,0,0,1-7,.37,52.12,52.12,0,0,1-7-.39,2.28,2.28,0,0,1-1.59-1.59A23.7,23.7,0,0,1,6.4,15.2a23.82,23.82,0,0,1,.37-4.33,2.31,2.31,0,0,1,1.59-1.6,54.83,54.83,0,0,1,7-.37,52,52,0,0,1,7,.39A2.28,2.28,0,0,1,24,10.88,22.14,22.14,0,0,1,24.4,15.22Z"/></svg>