<svg xmlns="http://www.w3.org/2000/svg" xmlns:xlink="http://www.w3.org/1999/xlink" width="1000" height="1000" viewBox="0 0 1000 1000">
  <defs>
    <style>
      .cls-1 {
        fill: #9fb75c;
        fill-rule: evenodd;
        filter: url(#filter);
      }
    </style>
    <filter id="filter" x="5" y="154" width="990" height="693.031" filterUnits="userSpaceOnUse">
      <feFlood result="flood" flood-color="#fff"/>
      <feComposite result="composite" operator="in" in2="SourceGraphic"/>
      <feBlend result="blend" in2="SourceGraphic"/>
    </filter>
  </defs>
  <path id="Forme_1" data-name="Forme 1" class="cls-1" d="M505.847,154c50.609,0.917,106.658,1.7,162.7,3.033q51.376,1.224,102.714,3.884c24.906,1.293,49.789,3.358,74.616,5.767A217.077,217.077,0,0,1,901.288,179.2c30.847,11.55,52.412,32.574,65.086,62.876,7.922,18.941,12.5,38.771,15.519,58.982q6.45,43.2,8.537,86.851c1.754,35.6,3.726,71.2,4.463,106.829,0.478,23.136-.9,46.321-1.783,69.471q-1.044,27.3-2.946,54.573c-2.365,33.769-4.764,67.571-11.9,100.753a263.619,263.619,0,0,1-9.8,34.189c-13.088,36.145-38.409,59.669-75.075,71.16A253.476,253.476,0,0,1,838.7,835.4c-26.831,2.26-53.7,4.258-80.583,5.687-26.7,1.419-53.431,2.277-80.16,2.877-48.514,1.089-97.039,1.694-145.555,2.707-51.9,1.084-103.773-.589-155.651-1.5-34.655-.606-69.319-1.275-103.946-2.7-30.067-1.241-60.083-3.667-90.131-5.417a384.31,384.31,0,0,1-53.021-6.3,186.677,186.677,0,0,1-35.749-10.685q-39.587-16.579-57.69-55.459c-8.714-18.631-13.661-38.366-17.007-58.537a710.041,710.041,0,0,1-8.487-78.492c-2.168-40.73-4.327-81.472-5.56-122.236-0.61-20.158.643-40.387,1.443-60.568q1.189-29.974,3.2-59.913C12.17,350.5,14.558,316.1,21.76,282.323a269.945,269.945,0,0,1,10.422-35.85c13.1-36.011,38.752-58.953,75.127-70.28,19.373-6.033,39.274-9.276,59.438-10.814,26.851-2.047,53.728-3.776,80.6-5.506,10.672-.687,21.362-1.207,32.052-1.463q66.83-1.6,133.663-2.972C442.175,154.857,471.29,154.526,505.847,154ZM401.877,648.843l257.3-148.613-257.3-148.6V648.843Z"/>
</svg>
