<?xml version="1.0" encoding="utf-8"?>
<!-- Generator: Adobe Illustrator 24.2.3, SVG Export Plug-In . SVG Version: 6.00 Build 0)  -->
<svg version="1.1" id="Calque_1" xmlns="http://www.w3.org/2000/svg" xmlns:xlink="http://www.w3.org/1999/xlink" x="0px" y="0px"
	 viewBox="0 0 600 841.89" style="enable-background:new 0 0 600 841.89;" xml:space="preserve">
<style type="text/css">
	.st0{fill:#FFFFFF;stroke:#000000;stroke-miterlimit:10;}
	.st1{fill:#FFFFFF;}
</style>
<path class="st0" d="M0,214.58"/>
<g id="XMLID_1419_">
	<path class="st1" d="M286.11,374.93c-2.6-2.6-6.19-4.2-10.15-4.2c-3.96,0-7.55,1.61-10.15,4.2c-2.6,2.59-4.2,6.18-4.2,10.15
		c0,7.92,6.42,14.35,14.35,14.35c3.96,0,7.55-1.61,10.15-4.2c2.6-2.6,4.2-6.19,4.2-10.15C290.31,381.12,288.7,377.53,286.11,374.93z
		 M279.96,379.44c0,0-1.35,0-1.89,0c-0.67,0-0.81,0.27-0.81,0.96c0,0.57,0,1.67,0,1.67h2.7l-0.26,2.93h-2.44v8.75h-3.49v-8.71h-1.82
		v-2.97h1.82c0,0,0-0.43,0-2.33c0-2.19,1.17-3.33,3.77-3.33c0.43,0,2.42,0,2.42,0V379.44z"/>
</g>
</svg>
