<?xml version="1.0" encoding="utf-8"?>
<!-- Generator: Adobe Illustrator 24.2.3, SVG Export Plug-In . SVG Version: 6.00 Build 0)  -->
<svg version="1.1" id="Calque_1" xmlns="http://www.w3.org/2000/svg" xmlns:xlink="http://www.w3.org/1999/xlink" x="0px" y="0px"
	 viewBox="0 0 600 841.89" style="enable-background:new 0 0 600 841.89;" xml:space="preserve">
<style type="text/css">
	.st0{fill:#FFFFFF;stroke:#000000;stroke-miterlimit:10;}
	.st1{fill:#FFFFFF;}
</style>
<path class="st0" d="M0,214.58"/>
<g>
	<path class="st1" d="M309.44,369.49c-1.44,0-2.61,1.18-2.61,2.63c0,1.45,1.17,2.63,2.61,2.63c1.44,0,2.62-1.18,2.62-2.63
		C312.06,370.67,310.88,369.49,309.44,369.49z"/>
	<path class="st1" d="M315.56,367.47c-0.14-0.37-0.31-0.63-0.59-0.91c-0.28-0.27-0.54-0.45-0.9-0.59c-0.27-0.11-0.69-0.24-1.45-0.27
		c-0.83-0.04-1.08-0.05-3.17-0.05c-2.09,0-2.34,0.01-3.17,0.05c-0.77,0.03-1.18,0.16-1.46,0.27c-0.36,0.14-0.63,0.32-0.9,0.59
		c-0.28,0.28-0.44,0.54-0.59,0.91c-0.11,0.28-0.24,0.7-0.27,1.46c-0.04,0.83-0.05,1.08-0.05,3.19c0,2.11,0.01,2.35,0.05,3.19
		c0.04,0.77,0.17,1.19,0.27,1.47c0.14,0.37,0.31,0.63,0.59,0.91c0.27,0.28,0.54,0.45,0.9,0.59c0.28,0.11,0.69,0.24,1.46,0.27
		c0.83,0.04,1.08,0.05,3.17,0.05c2.1,0,2.35-0.01,3.17-0.05c0.77-0.04,1.18-0.16,1.45-0.27c0.37-0.14,0.63-0.31,0.9-0.59
		c0.27-0.27,0.44-0.54,0.59-0.91c0.11-0.28,0.24-0.7,0.27-1.47c0.04-0.83,0.05-1.08,0.05-3.19c0-2.11,0-2.36-0.05-3.19
		C315.79,368.16,315.66,367.74,315.56,367.47z M309.44,376.17c-2.23,0-4.03-1.81-4.03-4.05c0-2.24,1.8-4.05,4.03-4.05
		s4.03,1.82,4.03,4.05C313.47,374.36,311.67,376.17,309.44,376.17z M313.63,368.85c-0.52,0-0.94-0.43-0.94-0.95
		c0-0.52,0.42-0.95,0.94-0.95c0.52,0,0.94,0.42,0.94,0.95C314.57,368.43,314.15,368.85,313.63,368.85z"/>
	<path class="st1" d="M319.55,361.94c-2.59-2.61-6.16-4.22-10.11-4.22c-3.95,0-7.52,1.61-10.11,4.22c-2.59,2.6-4.19,6.2-4.19,10.18
		c0,7.95,6.41,14.39,14.31,14.39c3.95,0,7.53-1.61,10.11-4.22c2.59-2.61,4.19-6.21,4.19-10.18
		C323.75,368.14,322.14,364.54,319.55,361.94z M317.24,375.37c-0.04,0.84-0.17,1.42-0.36,1.92c-0.2,0.52-0.47,0.96-0.9,1.4
		c-0.43,0.44-0.87,0.71-1.39,0.91c-0.5,0.2-1.07,0.33-1.9,0.37c-0.84,0.04-1.1,0.05-3.24,0.05c-2.13,0-2.4-0.01-3.23-0.05
		c-0.84-0.04-1.41-0.17-1.91-0.37c-0.51-0.2-0.95-0.47-1.39-0.91c-0.43-0.44-0.7-0.88-0.9-1.4c-0.19-0.5-0.32-1.08-0.36-1.92
		c-0.04-0.84-0.05-1.11-0.05-3.25c0-2.15,0.01-2.41,0.05-3.26c0.04-0.84,0.17-1.41,0.36-1.91c0.2-0.52,0.47-0.96,0.9-1.4
		c0.44-0.44,0.88-0.71,1.39-0.91c0.5-0.2,1.07-0.33,1.91-0.37c0.84-0.04,1.1-0.05,3.23-0.05c2.13,0,2.4,0.01,3.24,0.05
		c0.84,0.04,1.4,0.17,1.9,0.37c0.52,0.2,0.96,0.47,1.39,0.91c0.44,0.44,0.71,0.88,0.9,1.4c0.19,0.5,0.33,1.07,0.36,1.91
		c0.04,0.85,0.05,1.11,0.05,3.26C317.28,374.26,317.28,374.53,317.24,375.37z"/>
</g>
</svg>
