<?xml version="1.0" encoding="utf-8"?>
<!-- Generator: Adobe Illustrator 24.2.3, SVG Export Plug-In . SVG Version: 6.00 Build 0)  -->
<svg version="1.1" id="Calque_1" xmlns="http://www.w3.org/2000/svg" xmlns:xlink="http://www.w3.org/1999/xlink" x="0px" y="0px"
	 viewBox="0 0 600 841.89" style="enable-background:new 0 0 600 841.89;" xml:space="preserve">
<style type="text/css">
	.st0{fill:#FFFFFF;stroke:#000000;stroke-miterlimit:10;}
	.st1{fill:#FFFFFF;}
</style>
<path class="st0" d="M0,214.58"/>
<g>
	<path class="st1" d="M249.33,272.22l4.68-2.7l-4.68-2.7V272.22z"/>
	<path class="st1" d="M251.12,255.13c-7.95,0-14.39,6.45-14.39,14.39c0,7.95,6.45,14.39,14.39,14.39c7.95,0,14.39-6.45,14.39-14.39
		C265.51,261.57,259.07,255.13,251.12,255.13z M260.11,269.53c0,0,0,2.92-0.37,4.33c-0.21,0.77-0.82,1.38-1.59,1.59
		c-1.41,0.37-7.04,0.37-7.04,0.37s-5.62,0-7.04-0.39c-0.77-0.21-1.38-0.82-1.59-1.59c-0.37-1.39-0.37-4.33-0.37-4.33
		s0-2.92,0.37-4.33c0.21-0.77,0.83-1.39,1.59-1.6c1.41-0.37,7.04-0.37,7.04-0.37s5.63,0,7.04,0.39c0.77,0.21,1.38,0.82,1.59,1.59
		C260.13,266.6,260.11,269.53,260.11,269.53z"/>
</g>
</svg>
